<?xml version="1.0" encoding="UTF-8"?>
<svg xmlns="http://www.w3.org/2000/svg" xmlns:xlink="http://www.w3.org/1999/xlink" width="200px" height="200px" viewBox="0 0 200 200" version="1.1">
<g id="surface1">
<path style=" stroke:none;fill-rule:nonzero;fill:rgb(100%,100%,100%);fill-opacity:1;" d="M 106.054688 200.195312 C 70.703125 200.195312 35.449219 200.195312 0.195312 200.195312 C 0.195312 133.527344 0.195312 66.863281 0.195312 0.195312 C 66.863281 0.195312 133.527344 0.195312 200.195312 0.195312 C 200.195312 66.863281 200.195312 133.527344 200.195312 200.195312 C 168.847656 200.195312 137.5 200.195312 106.054688 200.195312 M 58.59375 107.421875 C 58.59375 107.421875 58.597656 107.4375 58.699219 107.367188 C 58.734375 107.253906 58.769531 107.144531 58.792969 107.035156 C 58.792969 107.035156 58.800781 107.050781 58.917969 106.996094 C 58.996094 106.800781 59.078125 106.605469 59.183594 106.363281 C 59.183594 106.363281 59.183594 106.308594 59.292969 106.230469 C 59.34375 106.058594 59.394531 105.890625 59.449219 105.707031 C 59.449219 105.707031 59.460938 105.703125 59.554688 105.636719 C 59.578125 105.519531 59.597656 105.40625 59.613281 105.304688 C 59.613281 105.304688 59.625 105.308594 59.734375 105.222656 C 61.28125 101.28125 61.839844 97.207031 60.894531 93.066406 C 60.457031 91.152344 59.550781 89.34375 58.828125 87.34375 C 57.707031 85.707031 56.683594 83.988281 55.4375 82.457031 C 54.722656 81.578125 53.660156 80.980469 52.738281 80.28125 C 50.671875 78.71875 48.40625 77.507812 45.949219 76.699219 C 45.011719 76.390625 44 76.3125 43.027344 76.109375 C 39.777344 75.417969 36.621094 75.847656 33.371094 76.914062 C 33.035156 77.019531 32.6875 77.09375 32.363281 77.230469 C 29.921875 78.269531 27.574219 79.4375 25.792969 81.511719 C 24.738281 82.734375 23.363281 83.738281 22.519531 85.082031 C 21.398438 86.871094 20.652344 88.890625 19.769531 90.96875 C 19.628906 91.644531 19.535156 92.332031 19.332031 92.988281 C 18.644531 95.222656 18.613281 97.488281 18.894531 99.792969 C 19.824219 107.402344 23.75 112.886719 30.578125 116.285156 C 32.359375 117.171875 34.21875 117.929688 36.4375 117.984375 C 39.03125 118.558594 41.605469 118.550781 44.28125 117.792969 C 44.363281 117.808594 44.457031 117.851562 44.539062 117.839844 C 47.296875 117.347656 49.761719 116.144531 52.058594 114.605469 C 54.714844 112.824219 56.894531 110.574219 58.527344 107.65625 C 58.554688 107.578125 58.582031 107.5 58.59375 107.421875 M 71.941406 96.644531 C 70.671875 100.144531 69.40625 103.644531 68.125 107.1875 C 69.472656 107.1875 70.730469 107.1875 71.996094 107.1875 C 72.480469 105.785156 72.921875 104.402344 73.449219 103.058594 C 73.5625 102.777344 74 102.453125 74.296875 102.441406 C 76.152344 102.386719 78.003906 102.4375 79.859375 102.394531 C 80.457031 102.378906 80.710938 102.582031 80.875 103.148438 C 81.207031 104.292969 81.605469 105.421875 82.03125 106.53125 C 82.136719 106.800781 82.457031 107.160156 82.699219 107.175781 C 83.878906 107.246094 85.066406 107.207031 86.332031 107.207031 C 85.917969 106.097656 85.542969 105.109375 85.175781 104.113281 C 83.277344 98.949219 81.378906 93.773438 79.457031 88.613281 C 79.347656 88.316406 79.011719 87.910156 78.753906 87.894531 C 77.527344 87.816406 76.296875 87.859375 75.097656 87.859375 C 74.046875 90.808594 73.03125 93.65625 71.941406 96.644531 M 158.777344 89.128906 C 156.621094 95.117188 154.457031 101.105469 152.265625 107.191406 C 153.300781 107.191406 154.207031 107.144531 155.105469 107.207031 C 155.765625 107.25 156.082031 107.042969 156.269531 106.390625 C 156.59375 105.25 157.050781 104.144531 157.382812 103.003906 C 157.527344 102.511719 157.730469 102.328125 158.25 102.332031 C 160.234375 102.359375 162.21875 102.363281 164.203125 102.332031 C 164.738281 102.324219 164.914062 102.546875 165.0625 103.015625 C 165.4375 104.214844 165.863281 105.398438 166.3125 106.570312 C 166.40625 106.816406 166.691406 107.148438 166.90625 107.160156 C 168.027344 107.21875 169.152344 107.1875 170.375 107.1875 C 170.261719 106.773438 170.199219 106.496094 170.105469 106.230469 C 168.167969 101.003906 166.230469 95.785156 164.285156 90.5625 C 163.957031 89.691406 163.832031 88.503906 163.195312 88.0625 C 162.550781 87.617188 161.378906 87.972656 160.453125 87.871094 C 159.542969 87.769531 158.972656 88.042969 158.777344 89.128906 M 124.832031 96.027344 C 124.222656 94.40625 123.265625 93.105469 121.480469 92.691406 C 119.375 92.199219 117.53125 92.660156 116 94.660156 C 116 92.136719 116 89.910156 116 87.714844 C 114.792969 87.714844 113.671875 87.714844 112.511719 87.714844 C 112.511719 94.175781 112.511719 100.574219 112.511719 107 C 113.699219 107 114.84375 107 116.042969 107 C 116.042969 104.207031 116.003906 101.476562 116.066406 98.75 C 116.082031 98.074219 116.328125 97.355469 116.652344 96.753906 C 117.183594 95.78125 118.769531 95.285156 119.917969 95.597656 C 121.003906 95.894531 121.609375 96.734375 121.644531 98.066406 C 121.683594 99.46875 121.683594 100.867188 121.691406 102.265625 C 121.699219 103.847656 121.691406 105.425781 121.691406 107.003906 C 122.921875 107.003906 124.042969 107.003906 125.207031 107.003906 C 125.207031 103.964844 125.230469 100.972656 125.191406 97.988281 C 125.1875 97.386719 124.96875 96.785156 124.832031 96.027344 M 90.511719 102.300781 C 90.425781 101.894531 90.339844 101.488281 90.230469 100.972656 C 93.597656 100.972656 96.890625 100.972656 100.222656 100.972656 C 100.222656 100.230469 100.285156 99.578125 100.214844 98.9375 C 99.855469 95.699219 98.082031 92.777344 94.375 92.648438 C 92.121094 92.574219 90.097656 93.066406 88.574219 94.863281 C 86.949219 96.78125 86.765625 99.074219 86.890625 101.449219 C 87.027344 104.121094 89.925781 107.082031 92.003906 107.308594 C 93.488281 107.472656 94.851562 107.441406 96.320312 106.917969 C 98.25 106.234375 99.378906 105.019531 100.058594 103.1875 C 98.988281 103.039062 97.972656 102.902344 96.957031 102.765625 C 96.042969 104.339844 95.097656 104.847656 93.410156 104.714844 C 91.9375 104.601562 91.050781 103.792969 90.511719 102.300781 M 127.902344 97.964844 C 127.835938 99 127.671875 100.035156 127.722656 101.0625 C 127.859375 103.703125 129.261719 105.722656 131.535156 106.796875 C 134.613281 108.253906 139.34375 107.574219 140.796875 103.113281 C 140.113281 103.035156 139.421875 103.050781 138.78125 102.863281 C 138.015625 102.636719 137.628906 102.804688 137.148438 103.488281 C 136.191406 104.84375 133.464844 105.199219 132.351562 104.03125 C 131.636719 103.28125 131.351562 102.113281 130.769531 100.925781 C 134.421875 100.925781 137.714844 100.925781 141.113281 100.925781 C 141.019531 100.03125 140.972656 99.222656 140.847656 98.425781 C 139.984375 92.933594 135.839844 91.757812 131.597656 93.203125 C 129.488281 93.921875 128.574219 95.808594 127.902344 97.964844 M 103.96875 90.355469 C 103.96875 91.191406 103.96875 92.027344 103.96875 92.953125 C 103.253906 92.953125 102.621094 92.953125 101.996094 92.953125 C 101.996094 93.871094 101.996094 94.691406 101.996094 95.566406 C 102.683594 95.566406 103.296875 95.566406 103.96875 95.566406 C 103.96875 95.941406 103.964844 96.261719 103.96875 96.578125 C 103.996094 99.046875 103.941406 101.519531 104.101562 103.980469 C 104.152344 104.714844 104.628906 105.636719 105.207031 106.082031 C 106.589844 107.136719 108.261719 107.253906 109.941406 106.984375 C 109.941406 106.128906 109.941406 105.328125 109.941406 104.46875 C 109.667969 104.46875 109.449219 104.46875 109.222656 104.464844 C 107.875 104.445312 107.453125 104.011719 107.445312 102.644531 C 107.441406 101.765625 107.441406 100.886719 107.441406 100.011719 C 107.441406 98.53125 107.441406 97.050781 107.441406 95.484375 C 108.363281 95.484375 109.15625 95.484375 109.933594 95.484375 C 109.933594 94.597656 109.933594 93.796875 109.933594 92.917969 C 109.082031 92.917969 108.285156 92.917969 107.410156 92.917969 C 107.410156 91.644531 107.410156 90.464844 107.410156 89.269531 C 106.226562 89.269531 105.136719 89.269531 103.96875 89.269531 C 103.96875 89.597656 103.96875 89.882812 103.96875 90.355469 M 177.152344 94.238281 C 177.152344 92.105469 177.152344 89.972656 177.152344 87.800781 C 175.792969 87.800781 174.574219 87.800781 173.300781 87.800781 C 173.300781 94.273438 173.300781 100.695312 173.300781 107.160156 C 174.589844 107.160156 175.839844 107.160156 177.152344 107.160156 C 177.152344 102.878906 177.152344 98.65625 177.152344 94.238281 M 148.683594 96.378906 C 149.6875 96.1875 150.691406 95.996094 151.738281 95.800781 C 151.738281 94.871094 151.738281 93.746094 151.738281 92.660156 C 149.667969 92.003906 148.605469 93.511719 147.238281 94.820312 C 147.238281 93.917969 147.238281 93.261719 147.238281 92.640625 C 146.019531 92.640625 144.894531 92.640625 143.769531 92.640625 C 143.769531 97.457031 143.769531 102.222656 143.769531 106.988281 C 144.972656 106.988281 146.121094 106.988281 147.292969 106.988281 C 147.292969 104.472656 147.320312 102.035156 147.277344 99.597656 C 147.253906 98.34375 147.640625 97.3125 148.683594 96.378906 Z M 148.683594 96.378906 "/>
<path style=" stroke:none;fill-rule:nonzero;fill:rgb(98.431373%,55.29412%,19.215687%);fill-opacity:1;" d="M 36.265625 117.972656 C 34.21875 117.929688 32.359375 117.171875 30.578125 116.285156 C 23.75 112.886719 19.824219 107.402344 18.894531 99.792969 C 18.613281 97.488281 18.644531 95.222656 19.332031 92.988281 C 19.535156 92.332031 19.628906 91.644531 19.824219 90.875 C 20.375 90.285156 20.902344 90.152344 21.609375 90.40625 C 22.542969 90.746094 23.542969 90.902344 24.488281 91.222656 C 26.597656 91.933594 28.714844 92.628906 30.777344 93.46875 C 31.722656 93.855469 32.542969 94.550781 33.394531 95.179688 C 32.882812 96.316406 32.398438 97.390625 31.90625 98.457031 C 30.441406 101.621094 28.980469 104.785156 27.519531 107.949219 C 27.417969 108.175781 27.277344 108.472656 27.339844 108.675781 C 27.421875 108.933594 27.683594 109.304688 27.890625 109.324219 C 28.660156 109.382812 29.464844 109.417969 30.214844 109.277344 C 31.589844 109.019531 32.550781 108.1875 33.242188 106.945312 C 33.894531 105.765625 34.78125 104.792969 36.324219 105.09375 C 36.117188 105.222656 35.941406 105.292969 35.902344 105.308594 C 36.214844 109.441406 35.269531 113.441406 34.757812 117.386719 C 35.371094 117.625 35.816406 117.800781 36.265625 117.972656 Z M 36.265625 117.972656 "/>
<path style=" stroke:none;fill-rule:nonzero;fill:rgb(87.058824%,26.666668%,91.764706%);fill-opacity:1;" d="M 33.421875 95.113281 C 32.542969 94.550781 31.722656 93.855469 30.777344 93.46875 C 28.714844 92.628906 26.597656 91.933594 24.488281 91.222656 C 23.542969 90.902344 22.542969 90.746094 21.609375 90.40625 C 20.902344 90.152344 20.375 90.285156 19.8125 90.796875 C 20.652344 88.890625 21.398438 86.871094 22.519531 85.082031 C 23.363281 83.738281 24.738281 82.734375 25.792969 81.511719 C 27.574219 79.4375 29.921875 78.269531 32.363281 77.230469 C 32.6875 77.09375 33.035156 77.019531 33.515625 76.925781 C 34.484375 76.78125 35.296875 76.550781 36.125 76.496094 C 37.613281 76.394531 39.105469 76.386719 40.597656 76.390625 C 40.738281 76.390625 41 76.71875 41 76.902344 C 41.015625 79.148438 40.988281 81.398438 40.980469 83.648438 C 40.976562 83.960938 41 84.273438 40.925781 84.585938 C 40.027344 84.558594 39.160156 84.476562 38.558594 85.164062 C 38.191406 85.574219 37.921875 86.082031 37.675781 86.582031 C 36.363281 89.230469 35.074219 91.886719 33.734375 94.566406 C 33.648438 94.628906 33.617188 94.683594 33.589844 94.796875 C 33.527344 94.9375 33.472656 95.023438 33.421875 95.113281 Z M 33.421875 95.113281 "/>
<path style=" stroke:none;fill-rule:nonzero;fill:rgb(42.745098%,23.529412%,100%);fill-opacity:1;" d="M 41.011719 84.585938 C 41 84.273438 40.976562 83.960938 40.980469 83.648438 C 40.988281 81.398438 41.015625 79.148438 41 76.902344 C 41 76.71875 40.738281 76.390625 40.597656 76.390625 C 39.105469 76.386719 37.613281 76.394531 36.125 76.496094 C 35.296875 76.550781 34.484375 76.78125 33.589844 76.917969 C 36.621094 75.847656 39.777344 75.417969 43.027344 76.109375 C 44 76.3125 45.011719 76.390625 45.949219 76.699219 C 48.40625 77.507812 50.671875 78.71875 52.738281 80.28125 C 53.660156 80.980469 54.722656 81.578125 55.4375 82.457031 C 56.683594 83.988281 57.707031 85.707031 58.765625 87.417969 C 57.578125 86.871094 56.761719 87.386719 56.027344 88.214844 C 55.917969 88.328125 55.761719 88.402344 55.636719 88.496094 C 53.917969 89.796875 52.125 91.011719 50.503906 92.425781 C 49.207031 93.558594 47.894531 94.75 47.28125 96.402344 C 46.417969 94.578125 45.5625 92.828125 44.722656 91.074219 C 44.042969 89.660156 43.292969 88.277344 42.746094 86.816406 C 42.386719 85.847656 41.878906 85.105469 41.011719 84.585938 Z M 41.011719 84.585938 "/>
<path style=" stroke:none;fill-rule:nonzero;fill:rgb(16.862746%,60.392159%,100%);fill-opacity:1;" d="M 47.296875 96.46875 C 47.894531 94.75 49.207031 93.558594 50.503906 92.425781 C 52.125 91.011719 53.917969 89.796875 55.636719 88.496094 C 55.761719 88.402344 55.917969 88.328125 56.027344 88.214844 C 56.761719 87.386719 57.578125 86.871094 58.78125 87.488281 C 59.550781 89.34375 60.457031 91.152344 60.894531 93.066406 C 61.839844 97.207031 61.28125 101.28125 59.660156 105.191406 C 59.535156 104.960938 59.488281 104.761719 59.464844 104.660156 C 58.738281 104.746094 58.113281 104.847656 57.484375 104.875 C 56.722656 104.910156 55.957031 104.832031 55.203125 104.898438 C 54.480469 104.964844 53.765625 105.242188 53.042969 105.25 C 52.269531 105.253906 51.878906 105.484375 51.855469 106.238281 C 50.296875 102.957031 48.796875 99.714844 47.296875 96.46875 Z M 47.296875 96.46875 "/>
<path style=" stroke:none;fill-rule:nonzero;fill:rgb(42.745098%,23.529412%,100%);fill-opacity:1;" d="M 71.976562 96.578125 C 73.03125 93.65625 74.046875 90.808594 75.097656 87.859375 C 76.296875 87.859375 77.527344 87.816406 78.753906 87.894531 C 79.011719 87.910156 79.347656 88.316406 79.457031 88.613281 C 81.378906 93.773438 83.277344 98.949219 85.175781 104.113281 C 85.542969 105.109375 85.917969 106.097656 86.332031 107.207031 C 85.066406 107.207031 83.878906 107.246094 82.699219 107.175781 C 82.457031 107.160156 82.136719 106.800781 82.03125 106.53125 C 81.605469 105.421875 81.207031 104.292969 80.875 103.148438 C 80.710938 102.582031 80.457031 102.378906 79.859375 102.394531 C 78.003906 102.4375 76.152344 102.386719 74.296875 102.441406 C 74 102.453125 73.5625 102.777344 73.449219 103.058594 C 72.921875 104.402344 72.480469 105.785156 71.996094 107.1875 C 70.730469 107.1875 69.472656 107.1875 68.125 107.1875 C 69.40625 103.644531 70.671875 100.144531 71.976562 96.578125 M 76.984375 92.132812 C 76.199219 94.589844 75.410156 97.046875 74.609375 99.546875 C 76.332031 99.546875 77.980469 99.546875 79.691406 99.546875 C 78.832031 96.902344 77.988281 94.300781 77.109375 91.589844 C 77.050781 91.769531 77.019531 91.875 76.984375 92.132812 Z M 76.984375 92.132812 "/>
<path style=" stroke:none;fill-rule:nonzero;fill:rgb(1.176471%,85.882354%,92.156863%);fill-opacity:1;" d="M 158.789062 89.050781 C 158.972656 88.042969 159.542969 87.769531 160.453125 87.871094 C 161.378906 87.972656 162.550781 87.617188 163.195312 88.0625 C 163.832031 88.503906 163.957031 89.691406 164.285156 90.5625 C 166.230469 95.785156 168.167969 101.003906 170.105469 106.230469 C 170.199219 106.496094 170.261719 106.773438 170.375 107.1875 C 169.152344 107.1875 168.027344 107.21875 166.90625 107.160156 C 166.691406 107.148438 166.40625 106.816406 166.3125 106.570312 C 165.863281 105.398438 165.4375 104.214844 165.0625 103.015625 C 164.914062 102.546875 164.738281 102.324219 164.203125 102.332031 C 162.21875 102.363281 160.234375 102.359375 158.25 102.332031 C 157.730469 102.328125 157.527344 102.511719 157.382812 103.003906 C 157.050781 104.144531 156.59375 105.25 156.269531 106.390625 C 156.082031 107.042969 155.765625 107.25 155.105469 107.207031 C 154.207031 107.144531 153.300781 107.191406 152.265625 107.191406 C 154.457031 101.105469 156.621094 95.117188 158.789062 89.050781 M 161.917969 93.632812 C 161.703125 92.933594 161.484375 92.230469 161.238281 91.421875 C 160.359375 94.140625 159.511719 96.761719 158.660156 99.402344 C 160.433594 99.402344 162.109375 99.402344 163.855469 99.402344 C 163.214844 97.488281 162.589844 95.636719 161.917969 93.632812 Z M 161.917969 93.632812 "/>
<path style=" stroke:none;fill-rule:nonzero;fill:rgb(42.745098%,23.529412%,100%);fill-opacity:1;" d="M 124.839844 96.109375 C 124.96875 96.785156 125.1875 97.386719 125.191406 97.988281 C 125.230469 100.972656 125.207031 103.964844 125.207031 107.003906 C 124.042969 107.003906 122.921875 107.003906 121.691406 107.003906 C 121.691406 105.425781 121.699219 103.847656 121.691406 102.265625 C 121.683594 100.867188 121.683594 99.46875 121.644531 98.066406 C 121.609375 96.734375 121.003906 95.894531 119.917969 95.597656 C 118.769531 95.285156 117.183594 95.78125 116.652344 96.753906 C 116.328125 97.355469 116.082031 98.074219 116.066406 98.75 C 116.003906 101.476562 116.042969 104.207031 116.042969 107 C 114.84375 107 113.699219 107 112.511719 107 C 112.511719 100.574219 112.511719 94.175781 112.511719 87.714844 C 113.671875 87.714844 114.792969 87.714844 116 87.714844 C 116 89.910156 116 92.136719 116 94.660156 C 117.53125 92.660156 119.375 92.199219 121.480469 92.691406 C 123.265625 93.105469 124.222656 94.40625 124.839844 96.109375 Z M 124.839844 96.109375 "/>
<path style=" stroke:none;fill-rule:nonzero;fill:rgb(42.745098%,23.529412%,100%);fill-opacity:1;" d="M 90.558594 102.367188 C 91.050781 103.792969 91.9375 104.601562 93.410156 104.714844 C 95.097656 104.847656 96.042969 104.339844 96.957031 102.761719 C 97.972656 102.902344 98.988281 103.039062 100.058594 103.1875 C 99.378906 105.019531 98.25 106.234375 96.320312 106.917969 C 94.851562 107.441406 93.488281 107.472656 92.003906 107.308594 C 89.925781 107.082031 87.027344 104.121094 86.890625 101.449219 C 86.765625 99.074219 86.949219 96.78125 88.574219 94.863281 C 90.097656 93.066406 92.121094 92.574219 94.375 92.648438 C 98.082031 92.777344 99.855469 95.699219 100.214844 98.9375 C 100.285156 99.578125 100.222656 100.230469 100.222656 100.972656 C 96.890625 100.972656 93.597656 100.972656 90.230469 100.972656 C 90.339844 101.488281 90.425781 101.894531 90.558594 102.367188 M 94.972656 95.472656 C 92.355469 94.824219 90.449219 96.035156 90.457031 98.59375 C 92.582031 98.59375 94.710938 98.59375 96.863281 98.59375 C 96.9375 97.160156 96.339844 96.167969 94.972656 95.472656 Z M 94.972656 95.472656 "/>
<path style=" stroke:none;fill-rule:nonzero;fill:rgb(42.745098%,23.529412%,100%);fill-opacity:1;" d="M 127.90625 97.886719 C 128.574219 95.808594 129.488281 93.921875 131.597656 93.203125 C 135.839844 91.757812 139.984375 92.933594 140.847656 98.425781 C 140.972656 99.222656 141.019531 100.03125 141.113281 100.925781 C 137.714844 100.925781 134.421875 100.925781 130.769531 100.925781 C 131.351562 102.113281 131.636719 103.28125 132.351562 104.03125 C 133.464844 105.199219 136.191406 104.84375 137.148438 103.488281 C 137.628906 102.804688 138.015625 102.636719 138.78125 102.863281 C 139.421875 103.050781 140.113281 103.035156 140.796875 103.113281 C 139.34375 107.574219 134.613281 108.253906 131.535156 106.796875 C 129.261719 105.722656 127.859375 103.703125 127.722656 101.0625 C 127.671875 100.035156 127.835938 99 127.90625 97.886719 M 132.21875 96.175781 C 131.8125 96.941406 131.40625 97.703125 130.980469 98.511719 C 133.078125 98.613281 134.941406 98.707031 136.808594 98.800781 C 137.449219 98.832031 137.65625 98.738281 137.535156 97.933594 C 137.125 95.144531 133.875 94.644531 132.21875 96.175781 Z M 132.21875 96.175781 "/>
<path style=" stroke:none;fill-rule:nonzero;fill:rgb(64.705884%,84.313726%,47.058824%);fill-opacity:1;" d="M 36.355469 117.980469 C 35.816406 117.800781 35.371094 117.625 34.757812 117.386719 C 35.269531 113.441406 36.214844 109.441406 35.902344 105.308594 C 35.941406 105.292969 36.117188 105.222656 36.410156 105.105469 C 38.105469 105.039062 39.675781 105.003906 41.25 105 C 42.089844 104.996094 42.925781 105.039062 43.796875 105.125 C 44.09375 105.277344 44.355469 105.363281 44.597656 105.441406 C 44.152344 109.121094 43.851562 112.714844 44.691406 116.308594 C 44.824219 116.851562 44.878906 117.472656 44.152344 117.746094 C 41.605469 118.550781 39.03125 118.558594 36.355469 117.980469 Z M 36.355469 117.980469 "/>
<path style=" stroke:none;fill-rule:nonzero;fill:rgb(1.176471%,85.882354%,92.156863%);fill-opacity:1;" d="M 44.214844 117.769531 C 44.878906 117.472656 44.824219 116.851562 44.691406 116.308594 C 43.851562 112.714844 44.152344 109.121094 44.597656 105.441406 C 44.355469 105.363281 44.09375 105.277344 43.875 105.136719 C 44.378906 105.203125 44.9375 105.199219 45.277344 105.46875 C 45.992188 106.042969 46.65625 106.703125 47.222656 107.417969 C 47.949219 108.339844 48.78125 109.058594 49.925781 109.3125 C 50.839844 109.511719 51.679688 109.375 52.417969 108.648438 C 53.050781 108.027344 52.371094 107.605469 52.332031 107.027344 C 52.261719 106.855469 52.1875 106.75 52.128906 106.648438 C 52.136719 106.648438 52.128906 106.667969 52.136719 106.601562 C 52.0625 106.449219 51.984375 106.355469 51.917969 106.269531 C 51.917969 106.273438 51.910156 106.277344 51.910156 106.277344 C 51.878906 105.484375 52.269531 105.253906 53.042969 105.25 C 53.765625 105.242188 54.480469 104.964844 55.203125 104.898438 C 55.957031 104.832031 56.722656 104.910156 57.484375 104.875 C 58.113281 104.847656 58.738281 104.746094 59.464844 104.660156 C 59.488281 104.761719 59.535156 104.960938 59.605469 105.234375 C 59.625 105.308594 59.613281 105.304688 59.554688 105.324219 C 59.484375 105.457031 59.472656 105.582031 59.460938 105.703125 C 59.460938 105.703125 59.449219 105.707031 59.375 105.730469 C 59.261719 105.9375 59.222656 106.125 59.183594 106.308594 C 59.183594 106.308594 59.183594 106.363281 59.105469 106.410156 C 58.949219 106.652344 58.875 106.851562 58.800781 107.050781 C 58.800781 107.050781 58.792969 107.035156 58.746094 107.0625 C 58.667969 107.207031 58.628906 107.320312 58.597656 107.4375 C 58.597656 107.4375 58.59375 107.421875 58.546875 107.457031 C 58.472656 107.566406 58.449219 107.652344 58.421875 107.730469 C 56.894531 110.574219 54.714844 112.824219 52.058594 114.605469 C 49.761719 116.144531 47.296875 117.347656 44.539062 117.839844 C 44.457031 117.851562 44.363281 117.808594 44.214844 117.769531 Z M 44.214844 117.769531 "/>
<path style=" stroke:none;fill-rule:nonzero;fill:rgb(42.745098%,23.529412%,100%);fill-opacity:1;" d="M 103.96875 90.261719 C 103.96875 89.882812 103.96875 89.597656 103.96875 89.269531 C 105.136719 89.269531 106.226562 89.269531 107.410156 89.269531 C 107.410156 90.464844 107.410156 91.644531 107.410156 92.917969 C 108.285156 92.917969 109.082031 92.917969 109.933594 92.917969 C 109.933594 93.796875 109.933594 94.597656 109.933594 95.484375 C 109.15625 95.484375 108.363281 95.484375 107.441406 95.484375 C 107.441406 97.050781 107.441406 98.53125 107.441406 100.011719 C 107.441406 100.886719 107.441406 101.765625 107.445312 102.644531 C 107.453125 104.011719 107.875 104.445312 109.222656 104.464844 C 109.449219 104.46875 109.667969 104.46875 109.941406 104.46875 C 109.941406 105.328125 109.941406 106.128906 109.941406 106.984375 C 108.261719 107.253906 106.589844 107.136719 105.207031 106.082031 C 104.628906 105.636719 104.152344 104.714844 104.101562 103.980469 C 103.941406 101.519531 103.996094 99.046875 103.96875 96.578125 C 103.964844 96.261719 103.96875 95.941406 103.96875 95.566406 C 103.296875 95.566406 102.683594 95.566406 101.996094 95.566406 C 101.996094 94.691406 101.996094 93.871094 101.996094 92.953125 C 102.621094 92.953125 103.253906 92.953125 103.96875 92.953125 C 103.96875 92.027344 103.96875 91.191406 103.96875 90.261719 Z M 103.96875 90.261719 "/>
<path style=" stroke:none;fill-rule:nonzero;fill:rgb(1.176471%,85.882354%,92.156863%);fill-opacity:1;" d="M 177.152344 94.335938 C 177.152344 98.65625 177.152344 102.878906 177.152344 107.160156 C 175.839844 107.160156 174.589844 107.160156 173.300781 107.160156 C 173.300781 100.695312 173.300781 94.273438 173.300781 87.800781 C 174.574219 87.800781 175.792969 87.800781 177.152344 87.800781 C 177.152344 89.972656 177.152344 92.105469 177.152344 94.335938 Z M 177.152344 94.335938 "/>
<path style=" stroke:none;fill-rule:nonzero;fill:rgb(42.745098%,23.529412%,100%);fill-opacity:1;" d="M 148.632812 96.433594 C 147.640625 97.3125 147.253906 98.34375 147.277344 99.597656 C 147.320312 102.035156 147.292969 104.472656 147.292969 106.988281 C 146.121094 106.988281 144.972656 106.988281 143.769531 106.988281 C 143.769531 102.222656 143.769531 97.457031 143.769531 92.640625 C 144.894531 92.640625 146.019531 92.640625 147.238281 92.640625 C 147.238281 93.261719 147.238281 93.917969 147.238281 94.820312 C 148.605469 93.511719 149.667969 92.003906 151.738281 92.660156 C 151.738281 93.746094 151.738281 94.871094 151.738281 95.800781 C 150.691406 95.996094 149.6875 96.1875 148.632812 96.433594 Z M 148.632812 96.433594 "/>
<path style=" stroke:none;fill-rule:nonzero;fill:rgb(16.862746%,60.392159%,100%);fill-opacity:1;" d="M 58.859375 107.019531 C 58.875 106.851562 58.949219 106.652344 59.089844 106.433594 C 59.078125 106.605469 58.996094 106.800781 58.859375 107.019531 Z M 58.859375 107.019531 "/>
<path style=" stroke:none;fill-rule:nonzero;fill:rgb(16.862746%,60.392159%,100%);fill-opacity:1;" d="M 59.238281 106.269531 C 59.222656 106.125 59.261719 105.9375 59.375 105.734375 C 59.394531 105.890625 59.34375 106.058594 59.238281 106.269531 Z M 59.238281 106.269531 "/>
<path style=" stroke:none;fill-rule:nonzero;fill:rgb(16.862746%,60.392159%,100%);fill-opacity:1;" d="M 59.507812 105.667969 C 59.472656 105.582031 59.484375 105.457031 59.558594 105.316406 C 59.597656 105.40625 59.578125 105.519531 59.507812 105.667969 Z M 59.507812 105.667969 "/>
<path style=" stroke:none;fill-rule:nonzero;fill:rgb(16.862746%,60.392159%,100%);fill-opacity:1;" d="M 58.644531 107.402344 C 58.628906 107.320312 58.667969 107.207031 58.753906 107.0625 C 58.769531 107.144531 58.734375 107.253906 58.644531 107.402344 Z M 58.644531 107.402344 "/>
<path style=" stroke:none;fill-rule:nonzero;fill:rgb(16.862746%,60.392159%,100%);fill-opacity:1;" d="M 58.476562 107.691406 C 58.449219 107.652344 58.472656 107.566406 58.550781 107.453125 C 58.582031 107.5 58.554688 107.578125 58.476562 107.691406 Z M 58.476562 107.691406 "/>
<path style=" stroke:none;fill-rule:nonzero;fill:rgb(100%,100%,100%);fill-opacity:1;" d="M 52.332031 107.09375 C 52.371094 107.605469 53.050781 108.027344 52.417969 108.648438 C 51.679688 109.375 50.839844 109.511719 49.925781 109.3125 C 48.78125 109.058594 47.949219 108.339844 47.222656 107.417969 C 46.65625 106.703125 45.992188 106.042969 45.277344 105.46875 C 44.9375 105.199219 44.378906 105.203125 43.84375 105.074219 C 42.925781 105.039062 42.089844 104.996094 41.25 105 C 39.675781 105.003906 38.105469 105.039062 36.441406 105.046875 C 34.78125 104.792969 33.894531 105.765625 33.242188 106.945312 C 32.550781 108.1875 31.589844 109.019531 30.214844 109.277344 C 29.464844 109.417969 28.660156 109.382812 27.890625 109.324219 C 27.683594 109.304688 27.421875 108.933594 27.339844 108.675781 C 27.277344 108.472656 27.417969 108.175781 27.519531 107.949219 C 28.980469 104.785156 30.441406 101.621094 31.90625 98.457031 C 32.398438 97.390625 32.882812 96.316406 33.394531 95.179688 C 33.472656 95.023438 33.527344 94.9375 33.625 94.769531 C 33.730469 94.65625 33.761719 94.605469 33.777344 94.542969 C 35.074219 91.886719 36.363281 89.230469 37.675781 86.582031 C 37.921875 86.082031 38.191406 85.574219 38.558594 85.164062 C 39.160156 84.476562 40.027344 84.558594 40.925781 84.585938 C 41.878906 85.105469 42.386719 85.847656 42.746094 86.816406 C 43.292969 88.277344 44.042969 89.660156 44.722656 91.074219 C 45.5625 92.828125 46.417969 94.578125 47.28125 96.402344 C 48.796875 99.714844 50.296875 102.957031 51.855469 106.238281 C 51.910156 106.277344 51.917969 106.273438 51.921875 106.332031 C 51.996094 106.480469 52.0625 106.574219 52.128906 106.667969 C 52.128906 106.667969 52.136719 106.648438 52.136719 106.714844 C 52.199219 106.882812 52.265625 106.988281 52.332031 107.09375 M 42.777344 98.4375 C 42.777344 98.4375 42.792969 98.4375 42.78125 98.296875 C 42.652344 98.058594 42.519531 97.816406 42.335938 97.457031 C 42.308594 97.421875 42.277344 97.386719 42.261719 97.296875 C 42.261719 97.230469 42.238281 97.179688 42.15625 96.996094 C 41.640625 95.890625 41.136719 94.777344 40.597656 93.675781 C 40.5 93.472656 40.28125 93.324219 40.113281 93.152344 C 39.957031 93.324219 39.746094 93.472656 39.644531 93.675781 C 39.113281 94.734375 38.605469 95.800781 38.109375 96.871094 C 37.660156 97.847656 37.238281 98.835938 36.726562 100.003906 C 37.742188 99.933594 38.40625 99.890625 39.160156 99.980469 C 40.296875 99.996094 41.433594 100.027344 42.566406 100.003906 C 42.820312 100 43.066406 99.816406 43.316406 99.714844 C 43.207031 99.480469 43.09375 99.246094 42.96875 99.019531 C 42.96875 99.019531 42.984375 99.019531 43.027344 98.886719 C 42.945312 98.734375 42.863281 98.578125 42.777344 98.4375 Z M 42.777344 98.4375 "/>
<path style=" stroke:none;fill-rule:nonzero;fill:rgb(98.431373%,55.29412%,19.215687%);fill-opacity:1;" d="M 33.734375 94.566406 C 33.761719 94.605469 33.730469 94.65625 33.636719 94.71875 C 33.617188 94.683594 33.648438 94.628906 33.734375 94.566406 Z M 33.734375 94.566406 "/>
<path style=" stroke:none;fill-rule:nonzero;fill:rgb(100%,100%,100%);fill-opacity:1;" d="M 76.984375 92.058594 C 77.019531 91.875 77.050781 91.769531 77.109375 91.589844 C 77.988281 94.300781 78.832031 96.902344 79.691406 99.546875 C 77.980469 99.546875 76.332031 99.546875 74.609375 99.546875 C 75.410156 97.046875 76.199219 94.589844 76.984375 92.058594 Z M 76.984375 92.058594 "/>
<path style=" stroke:none;fill-rule:nonzero;fill:rgb(100%,100%,100%);fill-opacity:1;" d="M 161.941406 93.707031 C 162.589844 95.636719 163.214844 97.488281 163.855469 99.402344 C 162.109375 99.402344 160.433594 99.402344 158.660156 99.402344 C 159.511719 96.761719 160.359375 94.140625 161.238281 91.421875 C 161.484375 92.230469 161.703125 92.933594 161.941406 93.707031 Z M 161.941406 93.707031 "/>
<path style=" stroke:none;fill-rule:nonzero;fill:rgb(100%,100%,100%);fill-opacity:1;" d="M 95.046875 95.503906 C 96.339844 96.167969 96.9375 97.160156 96.863281 98.59375 C 94.710938 98.59375 92.582031 98.59375 90.457031 98.59375 C 90.449219 96.035156 92.355469 94.824219 95.046875 95.503906 Z M 95.046875 95.503906 "/>
<path style=" stroke:none;fill-rule:nonzero;fill:rgb(100%,100%,100%);fill-opacity:1;" d="M 132.273438 96.128906 C 133.875 94.644531 137.125 95.144531 137.535156 97.933594 C 137.65625 98.738281 137.449219 98.832031 136.808594 98.800781 C 134.941406 98.707031 133.078125 98.613281 130.980469 98.511719 C 131.40625 97.703125 131.8125 96.941406 132.273438 96.128906 Z M 132.273438 96.128906 "/>
<path style=" stroke:none;fill-rule:nonzero;fill:rgb(16.862746%,60.392159%,100%);fill-opacity:1;" d="M 52.136719 106.601562 C 52.0625 106.574219 51.996094 106.480469 51.917969 106.328125 C 51.984375 106.355469 52.0625 106.449219 52.136719 106.601562 Z M 52.136719 106.601562 "/>
<path style=" stroke:none;fill-rule:nonzero;fill:rgb(16.862746%,60.392159%,100%);fill-opacity:1;" d="M 52.332031 107.027344 C 52.265625 106.988281 52.199219 106.882812 52.125 106.714844 C 52.1875 106.75 52.261719 106.855469 52.332031 107.027344 Z M 52.332031 107.027344 "/>
<path style=" stroke:none;fill-rule:nonzero;fill:rgb(87.058824%,26.666668%,91.764706%);fill-opacity:1;" d="M 42.25 97.355469 C 42.277344 97.386719 42.308594 97.421875 42.355469 97.59375 C 42.515625 97.964844 42.652344 98.199219 42.792969 98.4375 C 42.792969 98.4375 42.777344 98.4375 42.769531 98.5 C 42.839844 98.714844 42.910156 98.863281 42.984375 99.019531 C 42.984375 99.019531 42.96875 99.019531 42.96875 99.097656 C 43.035156 99.734375 42.699219 99.800781 42.253906 99.800781 C 41.191406 99.800781 40.128906 99.828125 39.066406 99.84375 C 38.40625 99.890625 37.742188 99.933594 36.726562 100.003906 C 37.238281 98.835938 37.660156 97.847656 38.109375 96.871094 C 38.605469 95.800781 39.113281 94.734375 39.644531 93.675781 C 39.746094 93.472656 39.957031 93.324219 40.113281 93.152344 C 40.28125 93.324219 40.5 93.472656 40.597656 93.675781 C 41.136719 94.777344 41.640625 95.890625 42.1875 97.09375 C 42.230469 97.246094 42.242188 97.300781 42.25 97.355469 Z M 42.25 97.355469 "/>
<path style=" stroke:none;fill-rule:nonzero;fill:rgb(42.745098%,23.529412%,100%);fill-opacity:1;" d="M 39.113281 99.910156 C 40.128906 99.828125 41.191406 99.800781 42.253906 99.800781 C 42.699219 99.800781 43.035156 99.734375 42.972656 99.09375 C 43.09375 99.246094 43.207031 99.480469 43.316406 99.714844 C 43.066406 99.816406 42.820312 100 42.566406 100.003906 C 41.433594 100.027344 40.296875 99.996094 39.113281 99.910156 Z M 39.113281 99.910156 "/>
<path style=" stroke:none;fill-rule:nonzero;fill:rgb(42.745098%,23.529412%,100%);fill-opacity:1;" d="M 42.785156 98.363281 C 42.652344 98.199219 42.515625 97.964844 42.386719 97.65625 C 42.519531 97.816406 42.652344 98.058594 42.785156 98.363281 Z M 42.785156 98.363281 "/>
<path style=" stroke:none;fill-rule:nonzero;fill:rgb(42.745098%,23.529412%,100%);fill-opacity:1;" d="M 43.003906 98.953125 C 42.910156 98.863281 42.839844 98.714844 42.773438 98.488281 C 42.863281 98.578125 42.945312 98.734375 43.003906 98.953125 Z M 43.003906 98.953125 "/>
<path style=" stroke:none;fill-rule:nonzero;fill:rgb(42.745098%,23.529412%,100%);fill-opacity:1;" d="M 42.253906 97.328125 C 42.242188 97.300781 42.230469 97.246094 42.199219 97.167969 C 42.238281 97.179688 42.261719 97.230469 42.253906 97.328125 Z M 42.253906 97.328125 "/>
</g>
</svg>
