<?xml version="1.0" encoding="UTF-8"?>
<svg xmlns="http://www.w3.org/2000/svg" xmlns:xlink="http://www.w3.org/1999/xlink" width="854px" height="480px" viewBox="0 0 854 480" version="1.1">
<g id="surface1">
<path style=" stroke:none;fill-rule:nonzero;fill:rgb(100%,100%,100%);fill-opacity:1;" d="M 452.851562 480.46875 C 301.902344 480.46875 151.367188 480.46875 0.835938 480.46875 C 0.835938 320.46875 0.835938 160.46875 0.835938 0.46875 C 285.5 0.46875 570.167969 0.46875 854.835938 0.46875 C 854.835938 160.46875 854.835938 320.46875 854.835938 480.46875 C 720.980469 480.46875 587.125 480.46875 452.851562 480.46875 M 250.195312 257.816406 C 250.195312 257.816406 250.214844 257.847656 250.632812 257.679688 C 250.792969 257.414062 250.953125 257.148438 251.050781 256.886719 C 251.050781 256.886719 251.078125 256.917969 251.570312 256.785156 C 251.914062 256.320312 252.257812 255.859375 252.703125 255.273438 C 252.703125 255.273438 252.707031 255.144531 253.179688 254.949219 C 253.402344 254.542969 253.625 254.132812 253.84375 253.695312 C 253.84375 253.695312 253.898438 253.683594 254.296875 253.523438 C 254.390625 253.253906 254.484375 252.980469 254.5625 252.730469 C 254.5625 252.730469 254.597656 252.746094 255.074219 252.539062 C 261.675781 243.074219 264.050781 233.300781 260.011719 223.363281 C 258.144531 218.765625 254.285156 214.425781 251.195312 209.625 C 246.421875 205.691406 242.042969 201.578125 236.71875 197.898438 C 233.671875 195.792969 229.132812 194.355469 225.1875 192.675781 C 216.367188 188.921875 206.699219 186.019531 196.210938 184.078125 C 192.207031 183.335938 187.882812 183.152344 183.726562 182.65625 C 169.847656 181.007812 156.375 182.039062 142.496094 184.59375 C 141.058594 184.84375 139.570312 185.027344 138.191406 185.355469 C 127.765625 187.84375 117.746094 190.648438 110.128906 195.621094 C 105.625 198.5625 99.773438 200.972656 96.164062 204.199219 C 91.371094 208.484375 88.179688 213.335938 84.417969 218.328125 C 83.8125 219.945312 83.421875 221.597656 82.554688 223.171875 C 79.605469 228.542969 79.472656 233.976562 80.675781 239.507812 C 84.640625 257.761719 101.410156 270.925781 130.566406 279.085938 C 138.171875 281.214844 146.109375 283.03125 155.59375 283.164062 C 166.65625 284.535156 177.644531 284.523438 189.074219 282.699219 C 189.445312 282.738281 189.835938 282.84375 190.179688 282.808594 C 201.957031 281.632812 212.46875 278.75 222.28125 275.050781 C 233.632812 270.773438 242.949219 265.375 249.917969 258.378906 C 250.03125 258.1875 250.140625 257.996094 250.195312 257.816406 M 307.183594 231.945312 C 301.773438 240.351562 296.359375 248.753906 290.886719 257.25 C 296.640625 257.25 302.023438 257.25 307.429688 257.25 C 309.496094 253.882812 311.371094 250.570312 313.632812 247.339844 C 314.105469 246.664062 315.980469 245.890625 317.25 245.867188 C 325.164062 245.726562 333.089844 245.847656 341.007812 245.746094 C 343.5625 245.710938 344.632812 246.203125 345.339844 247.554688 C 346.765625 250.300781 348.445312 253.007812 350.273438 255.675781 C 350.71875 256.328125 352.105469 257.191406 353.128906 257.222656 C 358.175781 257.382812 363.246094 257.296875 368.632812 257.296875 C 366.867188 254.640625 365.265625 252.261719 363.703125 249.878906 C 355.582031 237.472656 347.5 225.054688 339.289062 212.667969 C 338.816406 211.957031 337.367188 210.980469 336.285156 210.941406 C 331.046875 210.761719 325.78125 210.863281 320.664062 210.863281 C 316.175781 217.9375 311.835938 224.777344 307.183594 231.945312 M 677.980469 213.914062 C 668.761719 228.28125 659.542969 242.648438 650.171875 257.257812 C 654.59375 257.257812 658.460938 257.148438 662.296875 257.292969 C 665.125 257.402344 666.480469 256.898438 667.269531 255.335938 C 668.65625 252.597656 670.609375 249.949219 672.023438 247.214844 C 672.636719 246.023438 673.507812 245.585938 675.726562 245.601562 C 684.199219 245.664062 692.671875 245.671875 701.144531 245.597656 C 703.429688 245.578125 704.183594 246.113281 704.816406 247.238281 C 706.421875 250.113281 708.230469 252.957031 710.15625 255.769531 C 710.558594 256.359375 711.777344 257.15625 712.683594 257.183594 C 717.46875 257.324219 722.273438 257.25 727.503906 257.25 C 727.003906 256.257812 726.753906 255.585938 726.335938 254.953125 C 718.070312 242.417969 709.792969 229.878906 701.492188 217.351562 C 700.105469 215.261719 699.558594 212.40625 696.84375 211.351562 C 694.082031 210.28125 689.097656 211.132812 685.132812 210.890625 C 681.242188 210.652344 678.824219 211.304688 677.980469 213.914062 M 533.03125 230.46875 C 530.433594 226.574219 526.347656 223.457031 518.726562 222.460938 C 509.734375 221.28125 501.851562 222.382812 495.320312 227.1875 C 495.320312 221.121094 495.320312 215.78125 495.320312 210.511719 C 490.171875 210.511719 485.386719 210.511719 480.425781 210.511719 C 480.425781 226.019531 480.425781 241.371094 480.425781 256.796875 C 485.480469 256.796875 490.378906 256.796875 495.5 256.796875 C 495.5 250.09375 495.339844 243.542969 495.613281 236.996094 C 495.683594 235.382812 496.722656 233.648438 498.109375 232.210938 C 500.367188 229.875 507.152344 228.6875 512.054688 229.4375 C 516.6875 230.148438 519.28125 232.160156 519.429688 235.363281 C 519.589844 238.722656 519.589844 242.078125 519.617188 245.4375 C 519.644531 249.234375 519.625 253.027344 519.625 256.816406 C 524.875 256.816406 529.664062 256.816406 534.644531 256.816406 C 534.644531 249.511719 534.726562 242.339844 534.574219 235.167969 C 534.542969 233.726562 533.617188 232.289062 533.03125 230.46875 M 386.492188 245.527344 C 386.121094 244.550781 385.753906 243.574219 385.285156 242.339844 C 399.660156 242.339844 413.722656 242.339844 427.960938 242.339844 C 427.960938 240.554688 428.222656 238.984375 427.917969 237.449219 C 426.371094 229.671875 418.816406 222.660156 402.988281 222.355469 C 393.347656 222.171875 384.710938 223.363281 378.203125 227.675781 C 371.261719 232.277344 370.484375 237.773438 371.015625 243.480469 C 371.613281 249.882812 383.996094 256.992188 392.863281 257.539062 C 399.1875 257.929688 405.015625 257.855469 411.285156 256.605469 C 419.523438 254.964844 424.34375 252.046875 427.242188 247.648438 C 422.675781 247.296875 418.347656 246.960938 414.015625 246.632812 C 410.113281 250.417969 406.066406 251.636719 398.867188 251.320312 C 392.566406 251.042969 388.785156 249.101562 386.492188 245.527344 M 546.132812 235.121094 C 545.859375 237.597656 545.164062 240.089844 545.386719 242.554688 C 545.960938 248.886719 551.933594 253.734375 561.65625 256.316406 C 574.796875 259.804688 594.996094 258.175781 601.207031 247.476562 C 598.292969 247.289062 595.324219 247.320312 592.601562 246.867188 C 589.320312 246.324219 587.6875 246.730469 585.625 248.371094 C 581.53125 251.625 569.902344 252.476562 565.140625 249.679688 C 562.078125 247.875 560.871094 245.078125 558.394531 242.222656 C 573.988281 242.222656 588.046875 242.222656 602.554688 242.222656 C 602.160156 240.070312 601.964844 238.132812 601.429688 236.222656 C 597.726562 223.039062 580.027344 220.21875 561.917969 223.683594 C 552.917969 225.410156 549.011719 229.945312 546.132812 235.121094 M 443.941406 216.855469 C 443.941406 218.859375 443.941406 220.863281 443.941406 223.085938 C 440.90625 223.085938 438.195312 223.085938 435.53125 223.085938 C 435.53125 225.289062 435.53125 227.261719 435.53125 229.363281 C 438.464844 229.363281 441.070312 229.363281 443.941406 229.363281 C 443.941406 230.261719 443.929688 231.027344 443.941406 231.789062 C 444.058594 237.714844 443.828125 243.652344 444.515625 249.554688 C 444.71875 251.320312 446.765625 253.523438 449.242188 254.59375 C 455.125 257.132812 462.28125 257.40625 469.445312 256.765625 C 469.445312 254.710938 469.445312 252.792969 469.445312 250.71875 C 468.28125 250.71875 467.335938 250.726562 466.394531 250.71875 C 460.628906 250.667969 458.820312 249.632812 458.789062 246.34375 C 458.769531 244.238281 458.777344 242.132812 458.777344 240.023438 C 458.773438 236.472656 458.773438 232.917969 458.773438 229.160156 C 462.710938 229.160156 466.105469 229.160156 469.421875 229.160156 C 469.421875 227.03125 469.421875 225.117188 469.421875 223 C 465.792969 223 462.390625 223 458.632812 223 C 458.632812 219.953125 458.632812 217.109375 458.632812 214.25 C 453.589844 214.25 448.925781 214.25 443.945312 214.25 C 443.945312 215.035156 443.945312 215.71875 443.941406 216.855469 M 756.433594 226.171875 C 756.433594 221.058594 756.433594 215.941406 756.433594 210.726562 C 750.636719 210.726562 745.417969 210.726562 739.988281 210.726562 C 739.988281 226.253906 739.988281 241.667969 739.988281 257.183594 C 745.5 257.183594 750.824219 257.183594 756.433594 257.183594 C 756.433594 246.910156 756.433594 236.773438 756.433594 226.171875 M 634.871094 231.3125 C 639.164062 230.851562 643.457031 230.394531 647.914062 229.917969 C 647.914062 227.683594 647.914062 224.984375 647.914062 222.386719 C 639.078125 220.816406 634.535156 224.429688 628.71875 227.570312 C 628.71875 225.40625 628.71875 223.828125 628.71875 222.332031 C 623.5 222.332031 618.707031 222.332031 613.902344 222.332031 C 613.902344 233.902344 613.902344 245.339844 613.902344 256.769531 C 619.035156 256.769531 623.929688 256.769531 628.929688 256.769531 C 628.929688 250.738281 629.058594 244.882812 628.875 239.03125 C 628.78125 236.019531 630.421875 233.550781 634.871094 231.3125 Z M 634.871094 231.3125 "/>
<path style=" stroke:none;fill-rule:nonzero;fill:rgb(98.431373%,55.29412%,19.215687%);fill-opacity:1;" d="M 154.859375 283.140625 C 146.109375 283.03125 138.171875 281.214844 130.566406 279.085938 C 101.410156 270.925781 84.640625 257.761719 80.675781 239.507812 C 79.472656 233.976562 79.605469 228.542969 82.554688 223.171875 C 83.421875 221.597656 83.8125 219.945312 84.652344 218.101562 C 87 216.6875 89.253906 216.367188 92.265625 216.976562 C 96.261719 217.785156 100.53125 218.167969 104.5625 218.929688 C 113.570312 220.640625 122.613281 222.3125 131.410156 224.324219 C 135.457031 225.25 138.957031 226.929688 142.601562 228.429688 C 140.40625 231.164062 138.339844 233.734375 136.234375 236.296875 C 129.996094 243.890625 123.734375 251.480469 117.519531 259.078125 C 117.074219 259.628906 116.472656 260.332031 116.746094 260.824219 C 117.09375 261.441406 118.210938 262.332031 119.097656 262.371094 C 122.390625 262.519531 125.804688 262.605469 129.023438 262.265625 C 134.882812 261.648438 138.992188 259.648438 141.941406 256.667969 C 144.742188 253.84375 148.511719 251.507812 155.101562 252.222656 C 154.222656 252.53125 153.472656 252.699219 153.308594 252.734375 C 154.640625 262.664062 150.601562 272.261719 148.414062 281.730469 C 151.019531 282.300781 152.941406 282.722656 154.859375 283.140625 Z M 154.859375 283.140625 "/>
<path style=" stroke:none;fill-rule:nonzero;fill:rgb(87.058824%,26.666668%,91.764706%);fill-opacity:1;" d="M 142.707031 228.265625 C 138.957031 226.929688 135.457031 225.25 131.410156 224.324219 C 122.613281 222.3125 113.570312 220.640625 104.5625 218.929688 C 100.53125 218.167969 96.261719 217.785156 92.265625 216.976562 C 89.253906 216.367188 87 216.6875 84.59375 217.910156 C 88.179688 213.335938 91.371094 208.484375 96.164062 204.199219 C 99.773438 200.972656 105.625 198.5625 110.128906 195.621094 C 117.746094 190.648438 127.765625 187.84375 138.191406 185.355469 C 139.570312 185.027344 141.058594 184.84375 143.117188 184.617188 C 147.242188 184.277344 150.722656 183.71875 154.257812 183.589844 C 160.605469 183.351562 166.984375 183.332031 173.347656 183.332031 C 173.949219 183.332031 175.066406 184.128906 175.070312 184.558594 C 175.128906 189.957031 175.023438 195.355469 174.976562 200.753906 C 174.972656 201.503906 175.070312 202.253906 174.765625 203.007812 C 170.90625 202.941406 167.226562 202.742188 164.632812 204.394531 C 163.082031 205.382812 161.925781 206.601562 160.875 207.796875 C 155.273438 214.152344 149.761719 220.53125 144.046875 226.957031 C 143.679688 227.113281 143.542969 227.234375 143.421875 227.507812 C 143.148438 227.847656 142.929688 228.058594 142.707031 228.265625 Z M 142.707031 228.265625 "/>
<path style=" stroke:none;fill-rule:nonzero;fill:rgb(42.745098%,23.529412%,100%);fill-opacity:1;" d="M 175.117188 203.003906 C 175.070312 202.253906 174.972656 201.503906 174.976562 200.753906 C 175.023438 195.355469 175.128906 189.957031 175.070312 184.558594 C 175.066406 184.128906 173.949219 183.332031 173.347656 183.332031 C 166.984375 183.332031 160.605469 183.351562 154.257812 183.589844 C 150.722656 183.71875 147.242188 184.277344 143.429688 184.605469 C 156.375 182.039062 169.847656 181.007812 183.726562 182.65625 C 187.882812 183.152344 192.207031 183.335938 196.210938 184.078125 C 206.699219 186.019531 216.367188 188.921875 225.1875 192.675781 C 229.132812 194.355469 233.671875 195.792969 236.71875 197.898438 C 242.042969 201.578125 246.421875 205.691406 250.921875 209.804688 C 245.855469 208.496094 242.375 209.730469 239.222656 211.707031 C 238.773438 211.988281 238.109375 212.160156 237.5625 212.394531 C 230.222656 215.511719 222.570312 218.429688 215.65625 221.820312 C 210.121094 224.535156 204.515625 227.402344 201.894531 231.359375 C 198.207031 226.988281 194.554688 222.789062 190.960938 218.574219 C 188.070312 215.1875 184.867188 211.867188 182.53125 208.363281 C 180.984375 206.039062 178.828125 204.25 175.117188 203.003906 Z M 175.117188 203.003906 "/>
<path style=" stroke:none;fill-rule:nonzero;fill:rgb(16.862746%,60.392159%,100%);fill-opacity:1;" d="M 201.949219 231.523438 C 204.515625 227.402344 210.121094 224.535156 215.65625 221.820312 C 222.570312 218.429688 230.222656 215.511719 237.5625 212.394531 C 238.109375 212.160156 238.773438 211.988281 239.222656 211.707031 C 242.375 209.730469 245.855469 208.496094 250.988281 209.976562 C 254.285156 214.425781 258.144531 218.765625 260.011719 223.363281 C 264.050781 233.300781 261.675781 243.074219 254.753906 252.460938 C 254.222656 251.90625 254.011719 251.425781 253.90625 251.1875 C 250.820312 251.382812 248.140625 251.628906 245.453125 251.699219 C 242.210938 251.785156 238.941406 251.601562 235.71875 251.757812 C 232.621094 251.90625 229.574219 252.582031 226.496094 252.597656 C 223.199219 252.609375 221.523438 253.160156 221.417969 254.972656 C 214.769531 247.09375 208.359375 239.308594 201.949219 231.523438 Z M 201.949219 231.523438 "/>
<path style=" stroke:none;fill-rule:nonzero;fill:rgb(42.745098%,23.529412%,100%);fill-opacity:1;" d="M 307.339844 231.785156 C 311.835938 224.777344 316.175781 217.9375 320.664062 210.863281 C 325.78125 210.863281 331.046875 210.761719 336.285156 210.941406 C 337.367188 210.980469 338.816406 211.957031 339.289062 212.667969 C 347.5 225.054688 355.582031 237.472656 363.703125 249.878906 C 365.265625 252.261719 366.867188 254.640625 368.632812 257.296875 C 363.246094 257.296875 358.175781 257.382812 353.128906 257.222656 C 352.105469 257.191406 350.71875 256.328125 350.273438 255.675781 C 348.445312 253.007812 346.765625 250.300781 345.339844 247.554688 C 344.632812 246.203125 343.5625 245.710938 341.007812 245.746094 C 333.089844 245.847656 325.164062 245.726562 317.25 245.867188 C 315.980469 245.890625 314.105469 246.664062 313.632812 247.339844 C 311.371094 250.570312 309.496094 253.882812 307.429688 257.25 C 302.023438 257.25 296.640625 257.25 290.886719 257.25 C 296.359375 248.753906 301.773438 240.351562 307.339844 231.785156 M 328.71875 221.117188 C 325.363281 227.015625 322.003906 232.910156 318.585938 238.917969 C 325.945312 238.917969 332.964844 238.917969 340.292969 238.917969 C 336.621094 232.558594 333.011719 226.320312 329.257812 219.820312 C 329.019531 220.25 328.878906 220.503906 328.71875 221.117188 Z M 328.71875 221.117188 "/>
<path style=" stroke:none;fill-rule:nonzero;fill:rgb(1.176471%,85.882354%,92.156863%);fill-opacity:1;" d="M 678.027344 213.726562 C 678.824219 211.304688 681.242188 210.652344 685.132812 210.890625 C 689.097656 211.132812 694.082031 210.28125 696.84375 211.351562 C 699.558594 212.40625 700.105469 215.261719 701.492188 217.351562 C 709.792969 229.878906 718.070312 242.417969 726.335938 254.953125 C 726.753906 255.585938 727.003906 256.257812 727.503906 257.25 C 722.273438 257.25 717.46875 257.324219 712.683594 257.183594 C 711.777344 257.15625 710.558594 256.359375 710.15625 255.769531 C 708.230469 252.957031 706.421875 250.113281 704.816406 247.238281 C 704.183594 246.113281 703.429688 245.578125 701.144531 245.597656 C 692.671875 245.671875 684.199219 245.664062 675.726562 245.601562 C 673.507812 245.585938 672.636719 246.023438 672.023438 247.214844 C 670.609375 249.949219 668.65625 252.597656 667.269531 255.335938 C 666.480469 256.898438 665.125 257.402344 662.296875 257.292969 C 658.460938 257.148438 654.59375 257.257812 650.171875 257.257812 C 659.542969 242.648438 668.761719 228.28125 678.027344 213.726562 M 691.394531 224.71875 C 690.46875 223.035156 689.542969 221.347656 688.480469 219.410156 C 684.730469 225.9375 681.117188 232.222656 677.476562 238.5625 C 685.054688 238.5625 692.207031 238.5625 699.664062 238.5625 C 696.921875 233.972656 694.261719 229.527344 691.394531 224.71875 Z M 691.394531 224.71875 "/>
<path style=" stroke:none;fill-rule:nonzero;fill:rgb(42.745098%,23.529412%,100%);fill-opacity:1;" d="M 533.066406 230.660156 C 533.617188 232.289062 534.542969 233.726562 534.574219 235.167969 C 534.726562 242.339844 534.644531 249.511719 534.644531 256.816406 C 529.664062 256.816406 524.875 256.816406 519.625 256.816406 C 519.625 253.027344 519.644531 249.234375 519.617188 245.4375 C 519.589844 242.078125 519.589844 238.722656 519.429688 235.363281 C 519.28125 232.160156 516.6875 230.148438 512.054688 229.4375 C 507.152344 228.6875 500.367188 229.875 498.109375 232.210938 C 496.722656 233.648438 495.683594 235.382812 495.613281 236.996094 C 495.339844 243.542969 495.5 250.09375 495.5 256.796875 C 490.378906 256.796875 485.480469 256.796875 480.425781 256.796875 C 480.425781 241.371094 480.425781 226.019531 480.425781 210.511719 C 485.386719 210.511719 490.171875 210.511719 495.320312 210.511719 C 495.320312 215.78125 495.320312 221.121094 495.320312 227.1875 C 501.851562 222.382812 509.734375 221.28125 518.726562 222.460938 C 526.347656 223.457031 530.433594 226.574219 533.066406 230.660156 Z M 533.066406 230.660156 "/>
<path style=" stroke:none;fill-rule:nonzero;fill:rgb(42.745098%,23.529412%,100%);fill-opacity:1;" d="M 386.675781 245.679688 C 388.785156 249.101562 392.566406 251.042969 398.867188 251.320312 C 406.066406 251.636719 410.113281 250.417969 414.019531 246.632812 C 418.347656 246.960938 422.675781 247.296875 427.242188 247.648438 C 424.34375 252.046875 419.523438 254.964844 411.285156 256.605469 C 405.015625 257.855469 399.1875 257.929688 392.863281 257.539062 C 383.996094 256.992188 371.613281 249.882812 371.015625 243.480469 C 370.484375 237.773438 371.261719 232.277344 378.203125 227.675781 C 384.710938 223.363281 393.347656 222.171875 402.988281 222.355469 C 418.816406 222.660156 426.371094 229.671875 427.917969 237.449219 C 428.222656 238.984375 427.960938 240.554688 427.960938 242.339844 C 413.722656 242.339844 399.660156 242.339844 385.285156 242.339844 C 385.753906 243.574219 386.121094 244.550781 386.675781 245.679688 M 405.542969 229.136719 C 394.363281 227.582031 386.207031 230.488281 386.242188 236.621094 C 395.332031 236.621094 404.417969 236.621094 413.613281 236.621094 C 413.929688 233.179688 411.378906 230.808594 405.542969 229.136719 Z M 405.542969 229.136719 "/>
<path style=" stroke:none;fill-rule:nonzero;fill:rgb(42.745098%,23.529412%,100%);fill-opacity:1;" d="M 546.164062 234.921875 C 549.011719 229.945312 552.917969 225.410156 561.917969 223.683594 C 580.027344 220.21875 597.726562 223.039062 601.429688 236.222656 C 601.964844 238.132812 602.160156 240.070312 602.554688 242.222656 C 588.046875 242.222656 573.988281 242.222656 558.394531 242.222656 C 560.871094 245.078125 562.078125 247.875 565.140625 249.679688 C 569.902344 252.476562 581.53125 251.625 585.625 248.371094 C 587.6875 246.730469 589.320312 246.324219 592.601562 246.867188 C 595.324219 247.320312 598.292969 247.289062 601.207031 247.476562 C 594.996094 258.175781 574.796875 259.804688 561.65625 256.316406 C 551.933594 253.734375 545.960938 248.886719 545.386719 242.554688 C 545.164062 240.089844 545.859375 237.597656 546.164062 234.921875 M 564.574219 230.820312 C 562.839844 232.65625 561.105469 234.492188 559.277344 236.425781 C 568.238281 236.675781 576.203125 236.894531 584.167969 237.121094 C 586.894531 237.203125 587.792969 236.972656 587.285156 235.035156 C 585.523438 228.355469 571.640625 227.144531 564.574219 230.820312 Z M 564.574219 230.820312 "/>
<path style=" stroke:none;fill-rule:nonzero;fill:rgb(64.705884%,84.313726%,47.058824%);fill-opacity:1;" d="M 155.226562 283.152344 C 152.941406 282.722656 151.019531 282.300781 148.414062 281.730469 C 150.601562 272.261719 154.640625 262.664062 153.308594 252.734375 C 153.472656 252.699219 154.222656 252.53125 155.480469 252.253906 C 162.707031 252.09375 169.425781 252.011719 176.144531 251.996094 C 179.726562 251.988281 183.304688 252.09375 187.015625 252.300781 C 188.273438 252.660156 189.40625 252.871094 190.433594 253.0625 C 188.519531 261.886719 187.246094 270.515625 190.839844 279.136719 C 191.386719 280.445312 191.644531 281.941406 188.527344 282.589844 C 177.644531 284.523438 166.65625 284.535156 155.226562 283.152344 Z M 155.226562 283.152344 "/>
<path style=" stroke:none;fill-rule:nonzero;fill:rgb(1.176471%,85.882354%,92.156863%);fill-opacity:1;" d="M 188.800781 282.644531 C 191.644531 281.941406 191.386719 280.445312 190.839844 279.136719 C 187.246094 270.515625 188.519531 261.886719 190.433594 253.0625 C 189.40625 252.871094 188.273438 252.660156 187.347656 252.320312 C 189.507812 252.484375 191.886719 252.480469 193.335938 253.128906 C 196.386719 254.496094 199.226562 256.082031 201.640625 257.808594 C 204.730469 260.015625 208.304688 261.742188 213.183594 262.347656 C 217.078125 262.832031 220.671875 262.496094 223.820312 260.757812 C 226.53125 259.257812 223.628906 258.25 223.464844 256.859375 C 223.15625 256.449219 222.847656 256.199219 222.582031 255.953125 C 222.625 255.957031 222.601562 256 222.609375 255.84375 C 222.300781 255.472656 221.980469 255.253906 221.679688 255.046875 C 221.699219 255.054688 221.65625 255.070312 221.65625 255.070312 C 221.523438 253.160156 223.199219 252.609375 226.496094 252.597656 C 229.574219 252.582031 232.621094 251.90625 235.71875 251.757812 C 238.941406 251.601562 242.210938 251.785156 245.453125 251.699219 C 248.140625 251.628906 250.820312 251.382812 253.90625 251.1875 C 254.011719 251.425781 254.222656 251.90625 254.515625 252.566406 C 254.597656 252.746094 254.5625 252.730469 254.296875 252.769531 C 253.992188 253.101562 253.945312 253.394531 253.898438 253.683594 C 253.898438 253.683594 253.84375 253.695312 253.535156 253.746094 C 253.054688 254.246094 252.878906 254.695312 252.707031 255.144531 C 252.707031 255.144531 252.703125 255.273438 252.367188 255.382812 C 251.714844 255.964844 251.394531 256.441406 251.078125 256.917969 C 251.078125 256.917969 251.050781 256.886719 250.847656 256.953125 C 250.5 257.292969 250.355469 257.570312 250.214844 257.847656 C 250.214844 257.847656 250.195312 257.816406 249.992188 257.894531 C 249.683594 258.164062 249.574219 258.359375 249.46875 258.550781 C 242.949219 265.375 233.632812 270.773438 222.28125 275.050781 C 212.46875 278.75 201.957031 281.632812 190.179688 282.808594 C 189.835938 282.84375 189.445312 282.738281 188.800781 282.644531 Z M 188.800781 282.644531 "/>
<path style=" stroke:none;fill-rule:nonzero;fill:rgb(42.745098%,23.529412%,100%);fill-opacity:1;" d="M 443.941406 216.628906 C 443.945312 215.71875 443.945312 215.035156 443.945312 214.25 C 448.925781 214.25 453.589844 214.25 458.632812 214.25 C 458.632812 217.109375 458.632812 219.953125 458.632812 223 C 462.390625 223 465.792969 223 469.421875 223 C 469.421875 225.117188 469.421875 227.03125 469.421875 229.160156 C 466.105469 229.160156 462.710938 229.160156 458.773438 229.160156 C 458.773438 232.917969 458.773438 236.472656 458.777344 240.023438 C 458.777344 242.132812 458.769531 244.238281 458.789062 246.34375 C 458.820312 249.632812 460.628906 250.667969 466.394531 250.71875 C 467.335938 250.726562 468.28125 250.71875 469.445312 250.71875 C 469.445312 252.792969 469.445312 254.710938 469.445312 256.765625 C 462.28125 257.40625 455.125 257.132812 449.242188 254.59375 C 446.765625 253.523438 444.71875 251.320312 444.515625 249.554688 C 443.828125 243.652344 444.058594 237.714844 443.941406 231.789062 C 443.929688 231.027344 443.941406 230.261719 443.941406 229.363281 C 441.070312 229.363281 438.464844 229.363281 435.53125 229.363281 C 435.53125 227.261719 435.53125 225.289062 435.53125 223.085938 C 438.195312 223.085938 440.90625 223.085938 443.941406 223.085938 C 443.941406 220.863281 443.941406 218.859375 443.941406 216.628906 Z M 443.941406 216.628906 "/>
<path style=" stroke:none;fill-rule:nonzero;fill:rgb(1.176471%,85.882354%,92.156863%);fill-opacity:1;" d="M 756.433594 226.40625 C 756.433594 236.773438 756.433594 246.910156 756.433594 257.183594 C 750.824219 257.183594 745.5 257.183594 739.988281 257.183594 C 739.988281 241.667969 739.988281 226.253906 739.988281 210.726562 C 745.417969 210.726562 750.636719 210.726562 756.433594 210.726562 C 756.433594 215.941406 756.433594 221.058594 756.433594 226.40625 Z M 756.433594 226.40625 "/>
<path style=" stroke:none;fill-rule:nonzero;fill:rgb(42.745098%,23.529412%,100%);fill-opacity:1;" d="M 634.660156 231.445312 C 630.421875 233.550781 628.78125 236.019531 628.875 239.03125 C 629.058594 244.882812 628.929688 250.738281 628.929688 256.769531 C 623.929688 256.769531 619.035156 256.769531 613.902344 256.769531 C 613.902344 245.339844 613.902344 233.902344 613.902344 222.332031 C 618.707031 222.332031 623.5 222.332031 628.71875 222.332031 C 628.71875 223.828125 628.71875 225.40625 628.71875 227.570312 C 634.535156 224.429688 639.078125 220.816406 647.914062 222.386719 C 647.914062 224.984375 647.914062 227.683594 647.914062 229.917969 C 643.457031 230.394531 639.164062 230.851562 634.660156 231.445312 Z M 634.660156 231.445312 "/>
<path style=" stroke:none;fill-rule:nonzero;fill:rgb(16.862746%,60.392159%,100%);fill-opacity:1;" d="M 251.324219 256.851562 C 251.394531 256.441406 251.714844 255.964844 252.316406 255.441406 C 252.257812 255.859375 251.914062 256.320312 251.324219 256.851562 Z M 251.324219 256.851562 "/>
<path style=" stroke:none;fill-rule:nonzero;fill:rgb(16.862746%,60.392159%,100%);fill-opacity:1;" d="M 252.941406 255.046875 C 252.878906 254.695312 253.054688 254.246094 253.535156 253.761719 C 253.625 254.132812 253.402344 254.542969 252.941406 255.046875 Z M 252.941406 255.046875 "/>
<path style=" stroke:none;fill-rule:nonzero;fill:rgb(16.862746%,60.392159%,100%);fill-opacity:1;" d="M 254.097656 253.605469 C 253.945312 253.394531 253.992188 253.101562 254.304688 252.757812 C 254.484375 252.980469 254.390625 253.253906 254.097656 253.605469 Z M 254.097656 253.605469 "/>
<path style=" stroke:none;fill-rule:nonzero;fill:rgb(16.862746%,60.392159%,100%);fill-opacity:1;" d="M 250.421875 257.765625 C 250.355469 257.570312 250.5 257.292969 250.878906 256.949219 C 250.953125 257.148438 250.792969 257.414062 250.421875 257.765625 Z M 250.421875 257.765625 "/>
<path style=" stroke:none;fill-rule:nonzero;fill:rgb(16.862746%,60.392159%,100%);fill-opacity:1;" d="M 249.691406 258.464844 C 249.574219 258.359375 249.683594 258.164062 250.019531 257.890625 C 250.140625 257.996094 250.03125 258.1875 249.691406 258.464844 Z M 249.691406 258.464844 "/>
<path style=" stroke:none;fill-rule:nonzero;fill:rgb(100%,100%,100%);fill-opacity:1;" d="M 223.460938 257.019531 C 223.628906 258.25 226.53125 259.257812 223.820312 260.757812 C 220.671875 262.496094 217.078125 262.832031 213.183594 262.347656 C 208.304688 261.742188 204.730469 260.015625 201.640625 257.808594 C 199.226562 256.082031 196.386719 254.496094 193.335938 253.128906 C 191.886719 252.480469 189.507812 252.484375 187.21875 252.171875 C 183.304688 252.09375 179.726562 251.988281 176.144531 251.996094 C 169.425781 252.011719 162.707031 252.09375 155.609375 252.113281 C 148.511719 251.507812 144.742188 253.84375 141.941406 256.667969 C 138.992188 259.648438 134.882812 261.648438 129.023438 262.265625 C 125.804688 262.605469 122.390625 262.519531 119.097656 262.371094 C 118.210938 262.332031 117.09375 261.441406 116.746094 260.824219 C 116.472656 260.332031 117.074219 259.628906 117.519531 259.078125 C 123.734375 251.480469 129.996094 243.890625 136.234375 236.296875 C 138.339844 233.734375 140.40625 231.164062 142.601562 228.429688 C 142.929688 228.058594 143.148438 227.847656 143.585938 227.449219 C 144.03125 227.175781 144.171875 227.054688 144.21875 226.902344 C 149.761719 220.53125 155.273438 214.152344 160.875 207.796875 C 161.925781 206.601562 163.082031 205.382812 164.632812 204.394531 C 167.226562 202.742188 170.90625 202.941406 174.765625 203.007812 C 178.828125 204.25 180.984375 206.039062 182.53125 208.363281 C 184.867188 211.867188 188.070312 215.1875 190.960938 218.574219 C 194.554688 222.789062 198.207031 226.988281 201.894531 231.359375 C 208.359375 239.308594 214.769531 247.09375 221.417969 254.972656 C 221.65625 255.070312 221.699219 255.054688 221.710938 255.195312 C 222.015625 255.558594 222.308594 255.777344 222.601562 256 C 222.601562 256 222.625 255.957031 222.617188 256.113281 C 222.894531 256.519531 223.179688 256.769531 223.460938 257.019531 M 182.660156 236.246094 C 182.660156 236.246094 182.71875 236.246094 182.679688 235.910156 C 182.125 235.335938 181.570312 234.761719 180.773438 233.898438 C 180.652344 233.816406 180.53125 233.734375 180.457031 233.515625 C 180.460938 233.355469 180.351562 233.230469 180.011719 232.792969 C 177.808594 230.132812 175.648438 227.464844 173.363281 224.828125 C 172.933594 224.335938 172 223.980469 171.296875 223.558594 C 170.613281 223.976562 169.710938 224.335938 169.277344 224.824219 C 167.023438 227.363281 164.84375 229.917969 162.730469 232.496094 C 160.8125 234.835938 159.015625 237.207031 156.820312 240.003906 C 161.160156 239.839844 163.992188 239.734375 167.210938 239.953125 C 172.066406 239.984375 176.917969 240.0625 181.769531 240.015625 C 182.84375 240.003906 183.902344 239.5625 184.964844 239.316406 C 184.484375 238.753906 184.007812 238.191406 183.480469 237.652344 C 183.480469 237.652344 183.542969 237.648438 183.726562 237.332031 C 183.375 236.960938 183.027344 236.585938 182.660156 236.246094 Z M 182.660156 236.246094 "/>
<path style=" stroke:none;fill-rule:nonzero;fill:rgb(98.431373%,55.29412%,19.215687%);fill-opacity:1;" d="M 144.046875 226.957031 C 144.171875 227.054688 144.03125 227.175781 143.636719 227.320312 C 143.542969 227.234375 143.679688 227.113281 144.046875 226.957031 Z M 144.046875 226.957031 "/>
<path style=" stroke:none;fill-rule:nonzero;fill:rgb(100%,100%,100%);fill-opacity:1;" d="M 328.730469 220.9375 C 328.878906 220.503906 329.019531 220.25 329.257812 219.820312 C 333.011719 226.320312 336.621094 232.558594 340.292969 238.917969 C 332.964844 238.917969 325.945312 238.917969 318.585938 238.917969 C 322.003906 232.910156 325.363281 227.015625 328.730469 220.9375 Z M 328.730469 220.9375 "/>
<path style=" stroke:none;fill-rule:nonzero;fill:rgb(100%,100%,100%);fill-opacity:1;" d="M 691.5 224.898438 C 694.261719 229.527344 696.921875 233.972656 699.664062 238.5625 C 692.207031 238.5625 685.054688 238.5625 677.476562 238.5625 C 681.117188 232.222656 684.730469 225.9375 688.480469 219.410156 C 689.542969 221.347656 690.46875 223.035156 691.5 224.898438 Z M 691.5 224.898438 "/>
<path style=" stroke:none;fill-rule:nonzero;fill:rgb(100%,100%,100%);fill-opacity:1;" d="M 405.851562 229.214844 C 411.378906 230.808594 413.929688 233.179688 413.613281 236.621094 C 404.417969 236.621094 395.332031 236.621094 386.242188 236.621094 C 386.207031 230.488281 394.363281 227.582031 405.851562 229.214844 Z M 405.851562 229.214844 "/>
<path style=" stroke:none;fill-rule:nonzero;fill:rgb(100%,100%,100%);fill-opacity:1;" d="M 564.804688 230.703125 C 571.640625 227.144531 585.523438 228.355469 587.285156 235.035156 C 587.792969 236.972656 586.894531 237.203125 584.167969 237.121094 C 576.203125 236.894531 568.238281 236.675781 559.277344 236.425781 C 561.105469 234.492188 562.839844 232.65625 564.804688 230.703125 Z M 564.804688 230.703125 "/>
<path style=" stroke:none;fill-rule:nonzero;fill:rgb(16.862746%,60.392159%,100%);fill-opacity:1;" d="M 222.609375 255.84375 C 222.308594 255.777344 222.015625 255.558594 221.691406 255.1875 C 221.980469 255.253906 222.300781 255.472656 222.609375 255.84375 Z M 222.609375 255.84375 "/>
<path style=" stroke:none;fill-rule:nonzero;fill:rgb(16.862746%,60.392159%,100%);fill-opacity:1;" d="M 223.464844 256.859375 C 223.179688 256.769531 222.894531 256.519531 222.574219 256.113281 C 222.847656 256.199219 223.15625 256.449219 223.464844 256.859375 Z M 223.464844 256.859375 "/>
<path style=" stroke:none;fill-rule:nonzero;fill:rgb(87.058824%,26.666668%,91.764706%);fill-opacity:1;" d="M 180.40625 233.648438 C 180.53125 233.734375 180.652344 233.816406 180.859375 234.226562 C 181.535156 235.117188 182.128906 235.683594 182.71875 236.246094 C 182.71875 236.246094 182.660156 236.246094 182.636719 236.394531 C 182.921875 236.910156 183.234375 237.28125 183.542969 237.648438 C 183.542969 237.648438 183.480469 237.652344 183.476562 237.839844 C 183.765625 239.367188 182.332031 239.519531 180.4375 239.519531 C 175.898438 239.519531 171.359375 239.585938 166.820312 239.625 C 163.992188 239.734375 161.160156 239.839844 156.820312 240.003906 C 159.015625 237.207031 160.8125 234.835938 162.730469 232.496094 C 164.84375 229.917969 167.023438 227.363281 169.277344 224.824219 C 169.710938 224.335938 170.613281 223.976562 171.296875 223.558594 C 172 223.980469 172.933594 224.335938 173.363281 224.828125 C 175.648438 227.464844 177.808594 230.132812 180.132812 233.027344 C 180.320312 233.390625 180.371094 233.519531 180.40625 233.648438 Z M 180.40625 233.648438 "/>
<path style=" stroke:none;fill-rule:nonzero;fill:rgb(42.745098%,23.529412%,100%);fill-opacity:1;" d="M 167.015625 239.789062 C 171.359375 239.585938 175.898438 239.519531 180.4375 239.519531 C 182.332031 239.519531 183.765625 239.367188 183.5 237.828125 C 184.007812 238.191406 184.484375 238.753906 184.964844 239.316406 C 183.902344 239.5625 182.84375 240.003906 181.769531 240.015625 C 176.917969 240.0625 172.066406 239.984375 167.015625 239.789062 Z M 167.015625 239.789062 "/>
<path style=" stroke:none;fill-rule:nonzero;fill:rgb(42.745098%,23.529412%,100%);fill-opacity:1;" d="M 182.699219 236.078125 C 182.128906 235.683594 181.535156 235.117188 180.980469 234.371094 C 181.570312 234.761719 182.125 235.335938 182.699219 236.078125 Z M 182.699219 236.078125 "/>
<path style=" stroke:none;fill-rule:nonzero;fill:rgb(42.745098%,23.529412%,100%);fill-opacity:1;" d="M 183.636719 237.488281 C 183.234375 237.28125 182.921875 236.910156 182.644531 236.378906 C 183.027344 236.585938 183.375 236.960938 183.636719 237.488281 Z M 183.636719 237.488281 "/>
<path style=" stroke:none;fill-rule:nonzero;fill:rgb(42.745098%,23.529412%,100%);fill-opacity:1;" d="M 180.433594 233.582031 C 180.371094 233.519531 180.320312 233.390625 180.191406 233.203125 C 180.351562 233.230469 180.460938 233.355469 180.433594 233.582031 Z M 180.433594 233.582031 "/>
</g>
</svg>
