<svg version="1.1" id="Layer_1" xmlns="http://www.w3.org/2000/svg" xmlns:xlink="http://www.w3.org/1999/xlink" x="0px" y="0px"
	 width="100%" viewBox="0 0 1024 1024" enable-background="new 0 0 1024 1024" xml:space="preserve">
<path fill="#FFFFFF" opacity="1.000000" stroke="none" 
	d="
M543.000000,1025.000000 
	C362.000000,1025.000000 181.500000,1025.000000 1.000000,1025.000000 
	C1.000000,683.666687 1.000000,342.333344 1.000000,1.000000 
	C342.333344,1.000000 683.666687,1.000000 1025.000000,1.000000 
	C1025.000000,342.333344 1025.000000,683.666687 1025.000000,1025.000000 
	C864.500000,1025.000000 704.000000,1025.000000 543.000000,1025.000000 
M300.000275,550.006470 
	C300.000275,550.006470 300.023407,550.071655 300.523804,549.720398 
	C300.717102,549.151978 300.910431,548.583557 301.027618,548.024048 
	C301.027618,548.024048 301.058807,548.094055 301.646851,547.810608 
	C302.060150,546.819946 302.473450,545.829285 303.006012,544.587280 
	C303.006012,544.587280 303.009796,544.309082 303.578033,543.894409 
	C303.844696,543.023560 304.111359,542.152771 304.376953,541.213623 
	C304.376953,541.213623 304.442383,541.194153 304.919556,540.853394 
	C305.030365,540.271362 305.141174,539.689270 305.234558,539.157593 
	C305.234558,539.157593 305.277069,539.189880 305.848541,538.745850 
	C313.767120,518.560791 316.613129,497.711487 311.770813,476.504211 
	C309.532135,466.699829 304.903870,457.441101 301.201355,447.201508 
	C295.476318,438.812073 290.226593,430.036255 283.842560,422.182526 
	C280.189484,417.688446 274.746613,414.621155 270.012665,411.039490 
	C259.435944,403.037231 247.843414,396.840790 235.268021,392.695892 
	C230.468582,391.113983 225.284363,390.724640 220.301239,389.670135 
	C203.656113,386.147827 187.504730,388.347473 170.861237,393.797699 
	C169.138397,394.331635 167.354218,394.721069 165.702499,395.422516 
	C153.198959,400.732086 141.185730,406.720062 132.053833,417.325928 
	C126.650528,423.601410 119.632576,428.741119 115.306046,435.626526 
	C109.560860,444.769684 105.732666,455.117401 101.222939,465.765350 
	C100.494370,469.214050 100.025826,472.743042 98.989952,476.096802 
	C95.450546,487.555939 95.292595,499.148132 96.733292,510.946625 
	C101.489204,549.895020 121.597633,577.974731 156.558212,595.382812 
	C165.675751,599.922729 175.194183,603.797241 186.565918,604.079468 
	C199.831619,607.006836 213.006454,606.987366 226.710632,603.092346 
	C227.154861,603.176270 227.623596,603.398071 228.039749,603.324036 
	C242.158020,600.814392 254.764130,594.664062 266.527771,586.776306 
	C280.139862,577.649231 291.312500,566.134705 299.668549,551.208740 
	C299.801422,550.802185 299.934326,550.395630 300.000275,550.006470 
M368.334320,494.819763 
	C361.844635,512.747803 355.354919,530.675842 348.793488,548.802002 
	C355.690094,548.802002 362.144745,548.802002 368.626526,548.802002 
	C371.103180,541.616089 373.352905,534.545837 376.065857,527.658142 
	C376.633301,526.217468 378.881165,524.564392 380.402344,524.516235 
	C389.890930,524.215881 399.396027,524.472412 408.889069,524.255920 
	C411.954712,524.186035 413.238556,525.232849 414.082581,528.117981 
	C415.795349,533.972839 417.807617,539.752380 420.000641,545.445801 
	C420.533691,546.829590 422.194946,548.673279 423.425507,548.742615 
	C429.474457,549.083374 435.553101,548.897400 442.014679,548.897400 
	C439.896606,543.229858 437.976807,538.160583 436.105286,533.073547 
	C426.367615,506.605072 416.675262,480.119781 406.827240,453.692444 
	C406.260986,452.172882 404.523987,450.091797 403.225311,450.012238 
	C396.946899,449.627747 390.631989,449.838989 384.496399,449.838989 
	C379.114594,464.933136 373.910767,479.528137 368.334320,494.819763 
M812.939331,456.347992 
	C801.887268,486.999298 790.835144,517.650574 779.597229,548.817200 
	C784.899963,548.817200 789.537170,548.580505 794.136475,548.895630 
	C797.529175,549.127991 799.152893,548.049438 800.100159,544.718994 
	C801.762207,538.875732 804.103455,533.226685 805.797241,527.390930 
	C806.533569,524.853699 807.577209,523.913086 810.239197,523.948853 
	C820.396790,524.085510 830.558838,524.100281 840.715759,523.940430 
	C843.458984,523.897217 844.362671,525.040405 845.118103,527.445190 
	C847.044678,533.578186 849.212036,539.642578 851.521057,545.642761 
	C852.003845,546.897095 853.466797,548.601013 854.553528,548.658020 
	C860.290710,548.958984 866.052002,548.799133 872.322754,548.799133 
	C871.724670,546.680115 871.426025,545.253296 870.924988,543.901367 
	C861.012146,517.155029 851.088867,490.412415 841.131287,463.682648 
	C839.471130,459.226257 838.815125,453.133148 835.561157,450.885254 
	C832.250305,448.598022 826.271484,450.418945 821.519592,449.901917 
	C816.850281,449.393921 813.955322,450.787140 812.939331,456.347992 
M639.136230,491.668365 
	C636.024536,483.356049 631.122131,476.709991 621.988098,474.580658 
	C611.202026,472.066193 601.753723,474.419006 593.921875,484.666931 
	C593.921875,471.728943 593.921875,460.330627 593.921875,449.089966 
	C587.747681,449.089966 582.009705,449.089966 576.062866,449.089966 
	C576.062866,482.173920 576.062866,514.923401 576.062866,547.831299 
	C582.123657,547.831299 587.994385,547.831299 594.135803,547.831299 
	C594.135803,533.533508 593.942505,519.557129 594.273132,505.593170 
	C594.354736,502.146790 595.600647,498.447937 597.264648,495.382690 
	C599.971741,490.396210 608.106628,487.868134 613.985779,489.470703 
	C619.540283,490.984802 622.648987,495.271149 622.830139,502.112305 
	C623.019592,509.271759 623.023315,516.436768 623.053711,523.599609 
	C623.088013,531.695984 623.061584,539.792664 623.061584,547.871338 
	C629.357300,547.871338 635.099060,547.871338 641.072815,547.871338 
	C641.072815,532.289246 641.172607,516.990173 640.989136,501.694550 
	C640.952148,498.616180 639.840210,495.550690 639.136230,491.668365 
M463.429718,523.790588 
	C462.985352,521.706848 462.540985,519.623169 461.979340,516.989441 
	C479.216309,516.989441 496.080200,516.989441 513.151794,516.989441 
	C513.151794,513.182739 513.464966,509.832794 513.099060,506.558746 
	C511.244415,489.964172 502.186584,475.004242 483.209808,474.359070 
	C471.649994,473.966064 461.294434,476.512299 453.491333,485.710938 
	C445.165649,495.525604 444.235016,507.253571 444.873047,519.421875 
	C445.589569,533.087463 460.435242,548.254089 471.069092,549.420044 
	C478.653198,550.251587 485.637970,550.092834 493.157318,547.427429 
	C503.034241,543.926270 508.813843,537.702759 512.292053,528.314270 
	C506.814972,527.563293 501.624603,526.851624 496.432617,526.152649 
	C491.750000,534.227173 486.900452,536.822998 478.268402,536.149780 
	C470.712433,535.560486 466.176270,531.414551 463.429718,523.790588 
M654.848511,501.589050 
	C654.517822,506.876495 653.686768,512.189392 653.954163,517.446411 
	C654.641418,530.960022 661.805359,541.297668 673.459717,546.805725 
	C689.217651,554.253113 713.436829,550.777283 720.884888,527.947693 
	C717.393250,527.550476 713.830261,527.613525 710.568481,526.653564 
	C706.634094,525.495605 704.672180,526.359802 702.200745,529.857117 
	C697.293884,536.800598 683.348083,538.620239 677.640137,532.646179 
	C673.966614,528.801331 672.518188,522.830505 669.552368,516.745605 
	C688.249390,516.745605 705.105774,516.745605 722.498901,516.745605 
	C722.026428,512.151672 721.793762,508.015167 721.151123,503.943359 
	C716.712708,475.819519 695.487915,469.801392 673.777222,477.195374 
	C662.983215,480.871552 658.299561,490.549164 654.848511,501.589050 
M532.314819,462.623260 
	C532.314819,466.898102 532.314819,471.172974 532.314819,475.918762 
	C528.673340,475.918762 525.425720,475.918762 522.229614,475.918762 
	C522.229614,480.617859 522.229614,484.821411 522.229614,489.306793 
	C525.745178,489.306793 528.871277,489.306793 532.313721,489.306793 
	C532.313721,491.228882 532.298279,492.857697 532.316101,494.486084 
	C532.454529,507.124847 532.177185,519.791138 533.000305,532.385376 
	C533.246216,536.147461 535.698303,540.852295 538.669067,543.132202 
	C545.724365,548.546814 554.306763,549.132507 562.892578,547.765503 
	C562.892578,543.383362 562.892578,539.288208 562.892578,534.870605 
	C561.498657,534.870605 560.366943,534.885925 559.235779,534.868164 
	C552.324036,534.759644 550.155701,532.547791 550.117493,525.531860 
	C550.093079,521.039001 550.102051,516.545959 550.100769,512.053040 
	C550.098633,504.472443 550.100159,496.891815 550.100159,488.876404 
	C554.817932,488.876404 558.888062,488.876404 562.864990,488.876404 
	C562.864990,484.333588 562.864990,480.246704 562.864990,475.731506 
	C558.516113,475.731506 554.436523,475.731506 549.930786,475.731506 
	C549.930786,469.231110 549.930786,463.167175 549.930786,457.068634 
	C543.882202,457.068634 538.291077,457.068634 532.316162,457.068634 
	C532.316162,458.741028 532.316162,460.200500 532.314819,462.623260 
M907.012756,482.500000 
	C907.012756,471.587738 907.012756,460.675476 907.012756,449.549347 
	C900.061768,449.549347 893.804260,449.549347 887.292603,449.549347 
	C887.292603,482.678589 887.292603,515.557495 887.292603,548.660217 
	C893.903809,548.660217 900.283447,548.660217 907.013000,548.660217 
	C907.013000,526.740234 907.013000,505.120117 907.012756,482.500000 
M761.249695,493.463013 
	C766.397644,492.484863 771.545593,491.506683 776.892029,490.490814 
	C776.892029,485.724823 776.892029,479.967102 776.892029,474.428741 
	C766.295593,471.071960 760.849365,478.782593 753.873474,485.479950 
	C753.873474,480.863770 753.873474,477.501465 753.873474,474.311310 
	C747.615295,474.311310 741.867554,474.311310 736.109375,474.311310 
	C736.109375,498.991577 736.109375,523.390686 736.109375,547.774353 
	C742.260437,547.774353 748.132568,547.774353 754.126526,547.774353 
	C754.126526,534.904236 754.282104,522.416504 754.062134,509.935333 
	C753.948853,503.510254 755.916504,498.241577 761.249695,493.463013 
z"/>
<path fill="#FB8D31" opacity="1.000000" stroke="none" 
	d="
M185.686829,604.034851 
	C175.194183,603.797241 165.675751,599.922729 156.558212,595.382812 
	C121.597633,577.974731 101.489204,549.895020 96.733292,510.946625 
	C95.292595,499.148132 95.450546,487.555939 98.989952,476.096802 
	C100.025826,472.743042 100.494370,469.214050 101.502014,465.286072 
	C104.319572,462.268707 107.023155,461.584869 110.630302,462.884674 
	C115.423874,464.612061 120.542503,465.422028 125.377243,467.053589 
	C136.176056,470.697815 147.022278,474.270325 157.570343,478.558105 
	C162.423203,480.530762 166.620438,484.116333 170.986084,487.320129 
	C168.357117,493.147675 165.876892,498.634796 163.353226,504.101868 
	C155.874695,520.302856 148.367004,536.490417 140.915207,552.703674 
	C140.377441,553.873779 139.658264,555.379150 139.988220,556.423950 
	C140.404373,557.741699 141.741837,559.641968 142.805435,559.726013 
	C146.752274,560.037842 150.847961,560.228821 154.707062,559.503662 
	C161.731766,558.183777 166.658386,553.914673 170.196716,547.559387 
	C173.553925,541.529419 178.076447,536.549500 185.977631,538.072021 
	C184.922195,538.730774 184.021988,539.090698 183.828217,539.168213 
	C185.423737,560.352173 180.581787,580.825195 177.957672,601.021057 
	C181.084122,602.240112 183.385483,603.137512 185.686829,604.034851 
z"/>
<path fill="#DE44EA" opacity="1.000000" stroke="none" 
	d="
M171.114960,486.970581 
	C166.620438,484.116333 162.423203,480.530762 157.570343,478.558105 
	C147.022278,474.270325 136.176056,470.697815 125.377243,467.053589 
	C120.542503,465.422028 115.423874,464.612061 110.630302,462.884674 
	C107.023155,461.584869 104.319572,462.268707 101.430939,464.877167 
	C105.732666,455.117401 109.560860,444.769684 115.306046,435.626526 
	C119.632576,428.741119 126.650528,423.601410 132.053833,417.325928 
	C141.185730,406.720062 153.198959,400.732086 165.702499,395.422516 
	C167.354218,394.721069 169.138397,394.331635 171.605850,393.851135 
	C176.552567,393.124756 180.727463,391.937103 184.962769,391.654388 
	C192.574722,391.146332 200.222961,391.106781 207.855911,391.110901 
	C208.575821,391.111298 209.914429,392.809082 209.920166,393.725342 
	C209.992203,405.241974 209.863586,416.759766 209.809448,428.277344 
	C209.801941,429.876831 209.918701,431.476929 209.553467,433.080872 
	C204.927567,432.944794 200.514221,432.517792 197.406036,436.038818 
	C195.545517,438.146454 194.160233,440.749573 192.898331,443.296906 
	C186.181961,456.854889 179.572113,470.465668 172.722473,484.174347 
	C172.281342,484.506378 172.118927,484.769073 171.971619,485.351990 
	C171.645599,486.073730 171.380280,486.522156 171.114960,486.970581 
z"/>
<path fill="#6D3CFF" opacity="1.000000" stroke="none" 
	d="
M209.977921,433.076721 
	C209.918701,431.476929 209.801941,429.876831 209.809448,428.277344 
	C209.863586,416.759766 209.992203,405.241974 209.920166,393.725342 
	C209.914429,392.809082 208.575821,391.111298 207.855911,391.110901 
	C200.222961,391.106781 192.574722,391.146332 184.962769,391.654388 
	C180.727463,391.937103 176.552567,393.124756 171.982254,393.825134 
	C187.504730,388.347473 203.656113,386.147827 220.301239,389.670135 
	C225.284363,390.724640 230.468582,391.113983 235.268021,392.695892 
	C247.843414,396.840790 259.435944,403.037231 270.012665,411.039490 
	C274.746613,414.621155 280.189484,417.688446 283.842560,422.182526 
	C290.226593,430.036255 295.476318,438.812073 300.873077,447.586426 
	C294.794495,444.789795 290.624847,447.424530 286.843903,451.644226 
	C286.305725,452.244904 285.508698,452.609039 284.850159,453.107300 
	C276.053375,459.762482 266.877930,465.984314 258.586639,473.219238 
	C251.950348,479.010010 245.227005,485.123230 242.082611,493.564911 
	C237.663620,484.238678 233.285248,475.280426 228.973175,466.290375 
	C225.509201,459.068481 221.667892,451.979462 218.867599,444.504272 
	C217.010651,439.547302 214.427505,435.735870 209.977921,433.076721 
z"/>
<path fill="#2B9AFF" opacity="1.000000" stroke="none" 
	d="
M242.151855,493.919159 
	C245.227005,485.123230 251.950348,479.010010 258.586639,473.219238 
	C266.877930,465.984314 276.053375,459.762482 284.850159,453.107300 
	C285.508698,452.609039 286.305725,452.244904 286.843903,451.644226 
	C290.624847,447.424530 294.794495,444.789795 300.951904,447.953156 
	C304.903870,457.441101 309.532135,466.699829 311.770813,476.504211 
	C316.613129,497.711487 313.767120,518.560791 305.466614,538.583618 
	C304.829681,537.397522 304.574615,536.373657 304.448822,535.868652 
	C300.747742,536.283447 297.538452,536.810486 294.311493,536.961731 
	C290.427582,537.143799 286.506165,536.746643 282.642761,537.081787 
	C278.928894,537.403992 275.272369,538.842041 271.583282,538.871582 
	C267.628998,538.903198 265.622803,540.073303 265.492218,543.944946 
	C257.520691,527.133850 249.836273,510.526489 242.151855,493.919159 
z"/>
<path fill="#6D3CFF" opacity="1.000000" stroke="none" 
	d="
M368.520630,494.471436 
	C373.910767,479.528137 379.114594,464.933136 384.496399,449.838989 
	C390.631989,449.838989 396.946899,449.627747 403.225311,450.012238 
	C404.523987,450.091797 406.260986,452.172882 406.827240,453.692444 
	C416.675262,480.119781 426.367615,506.605072 436.105286,533.073547 
	C437.976807,538.160583 439.896606,543.229858 442.014679,548.897400 
	C435.553101,548.897400 429.474457,549.083374 423.425507,548.742615 
	C422.194946,548.673279 420.533691,546.829590 420.000641,545.445801 
	C417.807617,539.752380 415.795349,533.972839 414.082581,528.117981 
	C413.238556,525.232849 411.954712,524.186035 408.889069,524.255920 
	C399.396027,524.472412 389.890930,524.215881 380.402344,524.516235 
	C378.881165,524.564392 376.633301,526.217468 376.065857,527.658142 
	C373.352905,534.545837 371.103180,541.616089 368.626526,548.802002 
	C362.144745,548.802002 355.690094,548.802002 348.793488,548.802002 
	C355.354919,530.675842 361.844635,512.747803 368.520630,494.471436 
M394.155243,471.718597 
	C390.130219,484.298767 386.105194,496.878967 382.006744,509.688599 
	C390.828461,509.688599 399.246277,509.688599 408.034485,509.688599 
	C403.628418,496.125671 399.304230,482.814880 394.799286,468.947662 
	C394.512970,469.868164 394.345978,470.405060 394.155243,471.718597 
z"/>
<path fill="#03DBEB" opacity="1.000000" stroke="none" 
	d="
M812.999634,455.953186 
	C813.955322,450.787140 816.850281,449.393921 821.519592,449.901917 
	C826.271484,450.418945 832.250305,448.598022 835.561157,450.885254 
	C838.815125,453.133148 839.471130,459.226257 841.131287,463.682648 
	C851.088867,490.412415 861.012146,517.155029 870.924988,543.901367 
	C871.426025,545.253296 871.724670,546.680115 872.322754,548.799133 
	C866.052002,548.799133 860.290710,548.958984 854.553528,548.658020 
	C853.466797,548.601013 852.003845,546.897095 851.521057,545.642761 
	C849.212036,539.642578 847.044678,533.578186 845.118103,527.445190 
	C844.362671,525.040405 843.458984,523.897217 840.715759,523.940430 
	C830.558838,524.100281 820.396790,524.085510 810.239197,523.948853 
	C807.577209,523.913086 806.533569,524.853699 805.797241,527.390930 
	C804.103455,533.226685 801.762207,538.875732 800.100159,544.718994 
	C799.152893,548.049438 797.529175,549.127991 794.136475,548.895630 
	C789.537170,548.580505 784.899963,548.817200 779.597229,548.817200 
	C790.835144,517.650574 801.887268,486.999298 812.999634,455.953186 
M829.026794,479.400848 
	C827.916931,475.804291 826.807068,472.207703 825.531860,468.075256 
	C821.034607,482.000031 816.704407,495.407501 812.336731,508.930847 
	C821.425598,508.930847 829.999817,508.930847 838.943176,508.930847 
	C835.652283,499.140717 832.463562,489.654358 829.026794,479.400848 
z"/>
<path fill="#6D3CFF" opacity="1.000000" stroke="none" 
	d="
M639.180054,492.073822 
	C639.840210,495.550690 640.952148,498.616180 640.989136,501.694550 
	C641.172607,516.990173 641.072815,532.289246 641.072815,547.871338 
	C635.099060,547.871338 629.357300,547.871338 623.061584,547.871338 
	C623.061584,539.792664 623.088013,531.695984 623.053711,523.599609 
	C623.023315,516.436768 623.019592,509.271759 622.830139,502.112305 
	C622.648987,495.271149 619.540283,490.984802 613.985779,489.470703 
	C608.106628,487.868134 599.971741,490.396210 597.264648,495.382690 
	C595.600647,498.447937 594.354736,502.146790 594.273132,505.593170 
	C593.942505,519.557129 594.135803,533.533508 594.135803,547.831299 
	C587.994385,547.831299 582.123657,547.831299 576.062866,547.831299 
	C576.062866,514.923401 576.062866,482.173920 576.062866,449.089966 
	C582.009705,449.089966 587.747681,449.089966 593.921875,449.089966 
	C593.921875,460.330627 593.921875,471.728943 593.921875,484.666931 
	C601.753723,474.419006 611.202026,472.066193 621.988098,474.580658 
	C631.122131,476.709991 636.024536,483.356049 639.180054,492.073822 
z"/>
<path fill="#6D3CFF" opacity="1.000000" stroke="none" 
	d="
M463.650330,524.118286 
	C466.176270,531.414551 470.712433,535.560486 478.268402,536.149780 
	C486.900452,536.822998 491.750000,534.227173 496.433411,526.146301 
	C501.624603,526.851624 506.814972,527.563293 512.292053,528.314270 
	C508.813843,537.702759 503.034241,543.926270 493.157318,547.427429 
	C485.637970,550.092834 478.653198,550.251587 471.069092,549.420044 
	C460.435242,548.254089 445.589569,533.087463 444.873047,519.421875 
	C444.235016,507.253571 445.165649,495.525604 453.491333,485.710938 
	C461.294434,476.512299 471.649994,473.966064 483.209808,474.359070 
	C502.186584,475.004242 511.244415,489.964172 513.099060,506.558746 
	C513.464966,509.832794 513.151794,513.182739 513.151794,516.989441 
	C496.080200,516.989441 479.216309,516.989441 461.979340,516.989441 
	C462.540985,519.623169 462.985352,521.706848 463.650330,524.118286 
M486.270782,488.828705 
	C472.867371,485.506866 463.088257,491.707855 463.130249,504.795715 
	C474.026428,504.795715 484.922241,504.795715 495.947052,504.795715 
	C496.328552,497.451630 493.267151,492.388458 486.270782,488.828705 
z"/>
<path fill="#6D3CFF" opacity="1.000000" stroke="none" 
	d="
M654.883301,501.164307 
	C658.299561,490.549164 662.983215,480.871552 673.777222,477.195374 
	C695.487915,469.801392 716.712708,475.819519 721.151123,503.943359 
	C721.793762,508.015167 722.026428,512.151672 722.498901,516.745605 
	C705.105774,516.745605 688.249390,516.745605 669.552368,516.745605 
	C672.518188,522.830505 673.966614,528.801331 677.640137,532.646179 
	C683.348083,538.620239 697.293884,536.800598 702.200745,529.857117 
	C704.672180,526.359802 706.634094,525.495605 710.568481,526.653564 
	C713.830261,527.613525 717.393250,527.550476 720.884888,527.947693 
	C713.436829,550.777283 689.217651,554.253113 673.459717,546.805725 
	C661.805359,541.297668 654.641418,530.960022 653.954163,517.446411 
	C653.686768,512.189392 654.517822,506.876495 654.883301,501.164307 
M676.961487,492.415222 
	C674.880432,496.332153 672.799377,500.249054 670.608459,504.372711 
	C681.353516,504.907135 690.903870,505.373047 700.452942,505.862000 
	C703.725830,506.029541 704.803101,505.544189 704.190369,501.404205 
	C702.081543,487.155273 685.434021,484.572662 676.961487,492.415222 
z"/>
<path fill="#A5D778" opacity="1.000000" stroke="none" 
	d="
M186.126373,604.057129 
	C183.385483,603.137512 181.084122,602.240112 177.957672,601.021057 
	C180.581787,580.825195 185.423737,560.352173 183.828217,539.168213 
	C184.021988,539.090698 184.922195,538.730774 186.431091,538.141357 
	C195.096283,537.797058 203.152588,537.623291 211.209427,537.591431 
	C215.502182,537.574463 219.795929,537.802917 224.241791,538.240601 
	C225.751892,539.010193 227.109436,539.459717 228.341309,539.867615 
	C226.047546,558.691589 224.518005,577.098816 228.830688,595.490234 
	C229.484970,598.280457 229.794174,601.473511 226.054672,602.861755 
	C213.006454,606.987366 199.831619,607.006836 186.126373,604.057129 
z"/>
<path fill="#03DBEB" opacity="1.000000" stroke="none" 
	d="
M226.382660,602.977051 
	C229.794174,601.473511 229.484970,598.280457 228.830688,595.490234 
	C224.518005,577.098816 226.047546,558.691589 228.341309,539.867615 
	C227.109436,539.459717 225.751892,539.010193 224.640717,538.286072 
	C227.234100,538.633728 230.085617,538.623413 231.823410,540.009460 
	C235.479843,542.925781 238.886230,546.311646 241.780350,549.988770 
	C245.485703,554.696411 249.768295,558.382080 255.618347,559.674011 
	C260.290680,560.705933 264.601349,559.990234 268.375641,556.281677 
	C271.626404,553.087463 268.144348,550.937012 267.946136,547.964355 
	C267.578156,547.089722 267.209808,546.562317 266.890686,546.036987 
	C266.939941,546.039062 266.913666,546.134033 266.924988,545.803040 
	C266.552246,545.008484 266.168182,544.544861 265.807007,544.099731 
	C265.829926,544.118103 265.779297,544.148682 265.779297,544.148682 
	C265.622803,540.073303 267.628998,538.903198 271.583282,538.871582 
	C275.272369,538.842041 278.928894,537.403992 282.642761,537.081787 
	C286.506165,536.746643 290.427582,537.143799 294.311493,536.961731 
	C297.538452,536.810486 300.747742,536.283447 304.448822,535.868652 
	C304.574615,536.373657 304.829681,537.397522 305.180908,538.805664 
	C305.277069,539.189880 305.234558,539.157593 304.919556,539.244080 
	C304.550476,539.951782 304.496429,540.572937 304.442383,541.194153 
	C304.442383,541.194153 304.376953,541.213623 304.005737,541.325684 
	C303.426270,542.394897 303.218018,543.351990 303.009796,544.309082 
	C303.009796,544.309082 303.006012,544.587280 302.603912,544.815674 
	C301.820801,546.060791 301.439819,547.077393 301.058807,548.094055 
	C301.058807,548.094055 301.027618,548.024048 300.781708,548.162964 
	C300.364990,548.891846 300.194214,549.481750 300.023407,550.071655 
	C300.023407,550.071655 300.000275,550.006470 299.756592,550.174438 
	C299.384277,550.753357 299.255646,551.164246 299.127014,551.575195 
	C291.312500,566.134705 280.139862,577.649231 266.527771,586.776306 
	C254.764130,594.664062 242.158020,600.814392 228.039749,603.324036 
	C227.623596,603.398071 227.154861,603.176270 226.382660,602.977051 
z"/>
<path fill="#6D3CFF" opacity="1.000000" stroke="none" 
	d="
M532.315491,462.141602 
	C532.316162,460.200500 532.316162,458.741028 532.316162,457.068634 
	C538.291077,457.068634 543.882202,457.068634 549.930786,457.068634 
	C549.930786,463.167175 549.930786,469.231110 549.930786,475.731506 
	C554.436523,475.731506 558.516113,475.731506 562.864990,475.731506 
	C562.864990,480.246704 562.864990,484.333588 562.864990,488.876404 
	C558.888062,488.876404 554.817932,488.876404 550.100159,488.876404 
	C550.100159,496.891815 550.098633,504.472443 550.100769,512.053040 
	C550.102051,516.545959 550.093079,521.039001 550.117493,525.531860 
	C550.155701,532.547791 552.324036,534.759644 559.235779,534.868164 
	C560.366943,534.885925 561.498657,534.870605 562.892578,534.870605 
	C562.892578,539.288208 562.892578,543.383362 562.892578,547.765503 
	C554.306763,549.132507 545.724365,548.546814 538.669067,543.132202 
	C535.698303,540.852295 533.246216,536.147461 533.000305,532.385376 
	C532.177185,519.791138 532.454529,507.124847 532.316101,494.486084 
	C532.298279,492.857697 532.313721,491.228882 532.313721,489.306793 
	C528.871277,489.306793 525.745178,489.306793 522.229614,489.306793 
	C522.229614,484.821411 522.229614,480.617859 522.229614,475.918762 
	C525.425720,475.918762 528.673340,475.918762 532.314819,475.918762 
	C532.314819,471.172974 532.314819,466.898102 532.315491,462.141602 
z"/>
<path fill="#03DBEB" opacity="1.000000" stroke="none" 
	d="
M907.012878,483.000000 
	C907.013000,505.120117 907.013000,526.740234 907.013000,548.660217 
	C900.283447,548.660217 893.903809,548.660217 887.292603,548.660217 
	C887.292603,515.557495 887.292603,482.678589 887.292603,449.549347 
	C893.804260,449.549347 900.061768,449.549347 907.012756,449.549347 
	C907.012756,460.675476 907.012756,471.587738 907.012878,483.000000 
z"/>
<path fill="#6D3CFF" opacity="1.000000" stroke="none" 
	d="
M760.997498,493.747833 
	C755.916504,498.241577 753.948853,503.510254 754.062134,509.935333 
	C754.282104,522.416504 754.126526,534.904236 754.126526,547.774353 
	C748.132568,547.774353 742.260437,547.774353 736.109375,547.774353 
	C736.109375,523.390686 736.109375,498.991577 736.109375,474.311310 
	C741.867554,474.311310 747.615295,474.311310 753.873474,474.311310 
	C753.873474,477.501465 753.873474,480.863770 753.873474,485.479950 
	C760.849365,478.782593 766.295593,471.071960 776.892029,474.428741 
	C776.892029,479.967102 776.892029,485.724823 776.892029,490.490814 
	C771.545593,491.506683 766.397644,492.484863 760.997498,493.747833 
z"/>
<path fill="#2B9AFF" opacity="1.000000" stroke="none" 
	d="
M301.352844,547.952332 
	C301.439819,547.077393 301.820801,546.060791 302.544281,544.941406 
	C302.473450,545.829285 302.060150,546.819946 301.352844,547.952332 
z"/>
<path fill="#2B9AFF" opacity="1.000000" stroke="none" 
	d="
M303.293915,544.101746 
	C303.218018,543.351990 303.426270,542.394897 304.006256,541.359863 
	C304.111359,542.152771 303.844696,543.023560 303.293915,544.101746 
z"/>
<path fill="#2B9AFF" opacity="1.000000" stroke="none" 
	d="
M304.680969,541.023804 
	C304.496429,540.572937 304.550476,539.951782 304.928284,539.218872 
	C305.141174,539.689270 305.030365,540.271362 304.680969,541.023804 
z"/>
<path fill="#2B9AFF" opacity="1.000000" stroke="none" 
	d="
M300.273621,549.895996 
	C300.194214,549.481750 300.364990,548.891846 300.819763,548.158569 
	C300.910431,548.583557 300.717102,549.151978 300.273621,549.895996 
z"/>
<path fill="#2B9AFF" opacity="1.000000" stroke="none" 
	d="
M299.397766,551.391968 
	C299.255646,551.164246 299.384277,550.753357 299.790070,550.165771 
	C299.934326,550.395630 299.801422,550.802185 299.397766,551.391968 
z"/>
<path fill="#FFFFFF" opacity="1.000000" stroke="none" 
	d="
M267.945770,548.311523 
	C268.144348,550.937012 271.626404,553.087463 268.375641,556.281677 
	C264.601349,559.990234 260.290680,560.705933 255.618347,559.674011 
	C249.768295,558.382080 245.485703,554.696411 241.780350,549.988770 
	C238.886230,546.311646 235.479843,542.925781 231.823410,540.009460 
	C230.085617,538.623413 227.234100,538.633728 224.488159,537.966064 
	C219.795929,537.802917 215.502182,537.574463 211.209427,537.591431 
	C203.152588,537.623291 195.096283,537.797058 186.586304,537.842529 
	C178.076447,536.549500 173.553925,541.529419 170.196716,547.559387 
	C166.658386,553.914673 161.731766,558.183777 154.707062,559.503662 
	C150.847961,560.228821 146.752274,560.037842 142.805435,559.726013 
	C141.741837,559.641968 140.404373,557.741699 139.988220,556.423950 
	C139.658264,555.379150 140.377441,553.873779 140.915207,552.703674 
	C148.367004,536.490417 155.874695,520.302856 163.353226,504.101868 
	C165.876892,498.634796 168.357117,493.147675 170.986084,487.320129 
	C171.380280,486.522156 171.645599,486.073730 172.167892,485.224243 
	C172.702545,484.640686 172.869385,484.385681 172.925400,484.058167 
	C179.572113,470.465668 186.181961,456.854889 192.898331,443.296906 
	C194.160233,440.749573 195.545517,438.146454 197.406036,436.038818 
	C200.514221,432.517792 204.927567,432.944794 209.553467,433.080872 
	C214.427505,435.735870 217.010651,439.547302 218.867599,444.504272 
	C221.667892,451.979462 225.509201,459.068481 228.973175,466.290375 
	C233.285248,475.280426 237.663620,484.238678 242.082611,493.564911 
	C249.836273,510.526489 257.520691,527.133850 265.492218,543.944946 
	C265.779297,544.148682 265.829926,544.118103 265.843689,544.416504 
	C266.209503,545.187927 266.561584,545.660950 266.913666,546.134033 
	C266.913666,546.134033 266.939941,546.039062 266.931519,546.373657 
	C267.264008,547.242737 267.604889,547.777100 267.945770,548.311523 
M219.019669,503.994080 
	C219.019669,503.994080 219.091599,503.992798 219.046295,503.274658 
	C218.380722,502.051605 217.715149,500.828552 216.760529,498.981903 
	C216.613876,498.805908 216.467209,498.629883 216.377960,498.168427 
	C216.382065,497.827911 216.251007,497.560852 215.847443,496.620941 
	C213.205093,490.951355 210.615356,485.256073 207.873596,479.634979 
	C207.359070,478.580048 206.237335,477.821289 205.395813,476.925873 
	C204.574188,477.818298 203.494537,478.581970 202.974228,479.624756 
	C200.273422,485.037659 197.656357,490.494659 195.124832,495.989136 
	C192.824814,500.981140 190.671875,506.040894 188.039078,512.011963 
	C193.240585,511.660797 196.635117,511.431610 200.497467,511.901337 
	C206.316803,511.968811 212.137726,512.130127 217.954208,512.030762 
	C219.239105,512.008789 220.508224,511.063995 221.784607,510.544128 
	C221.210632,509.342224 220.636658,508.140289 220.005676,506.988464 
	C220.005676,506.988464 220.081238,506.981293 220.300766,506.309143 
	C219.880066,505.514343 219.459366,504.719513 219.019669,503.994080 
z"/>
<path fill="#FB8D31" opacity="1.000000" stroke="none" 
	d="
M172.722473,484.174347 
	C172.869385,484.385681 172.702545,484.640686 172.228607,484.950928 
	C172.118927,484.769073 172.281342,484.506378 172.722473,484.174347 
z"/>
<path fill="#FFFFFF" opacity="1.000000" stroke="none" 
	d="
M394.167114,471.330261 
	C394.345978,470.405060 394.512970,469.868164 394.799286,468.947662 
	C399.304230,482.814880 403.628418,496.125671 408.034485,509.688599 
	C399.246277,509.688599 390.828461,509.688599 382.006744,509.688599 
	C386.105194,496.878967 390.130219,484.298767 394.167114,471.330261 
z"/>
<path fill="#FFFFFF" opacity="1.000000" stroke="none" 
	d="
M829.150757,479.784424 
	C832.463562,489.654358 835.652283,499.140717 838.943176,508.930847 
	C829.999817,508.930847 821.425598,508.930847 812.336731,508.930847 
	C816.704407,495.407501 821.034607,482.000031 825.531860,468.075256 
	C826.807068,472.207703 827.916931,475.804291 829.150757,479.784424 
z"/>
<path fill="#FFFFFF" opacity="1.000000" stroke="none" 
	d="
M486.643188,488.988098 
	C493.267151,492.388458 496.328552,497.451630 495.947052,504.795715 
	C484.922241,504.795715 474.026428,504.795715 463.130249,504.795715 
	C463.088257,491.707855 472.867371,485.506866 486.643188,488.988098 
z"/>
<path fill="#FFFFFF" opacity="1.000000" stroke="none" 
	d="
M677.237427,492.170654 
	C685.434021,484.572662 702.081543,487.155273 704.190369,501.404205 
	C704.803101,505.544189 703.725830,506.029541 700.452942,505.862000 
	C690.903870,505.373047 681.353516,504.907135 670.608459,504.372711 
	C672.799377,500.249054 674.880432,496.332153 677.237427,492.170654 
z"/>
<path fill="#2B9AFF" opacity="1.000000" stroke="none" 
	d="
M266.924988,545.803040 
	C266.561584,545.660950 266.209503,545.187927 265.820770,544.398071 
	C266.168182,544.544861 266.552246,545.008484 266.924988,545.803040 
z"/>
<path fill="#2B9AFF" opacity="1.000000" stroke="none" 
	d="
M267.946136,547.964355 
	C267.604889,547.777100 267.264008,547.242737 266.882294,546.371582 
	C267.209808,546.562317 267.578156,547.089722 267.946136,547.964355 
z"/>
<path fill="#DE44EA" opacity="1.000000" stroke="none" 
	d="
M216.320557,498.453857 
	C216.467209,498.629883 216.613876,498.805908 216.862122,499.681152 
	C217.673019,501.584534 218.382309,502.788666 219.091614,503.992798 
	C219.091599,503.992798 219.019669,503.994080 218.992203,504.310608 
	C219.336899,505.411865 219.709061,506.196594 220.081238,506.981293 
	C220.081238,506.981293 220.005676,506.988464 220.000732,507.389099 
	C220.348602,510.648895 218.626923,510.972321 216.355392,510.971954 
	C210.913498,510.971008 205.471558,511.116180 200.029648,511.202393 
	C196.635117,511.431610 193.240585,511.660797 188.039078,512.011963 
	C190.671875,506.040894 192.824814,500.981140 195.124832,495.989136 
	C197.656357,490.494659 200.273422,485.037659 202.974228,479.624756 
	C203.494537,478.581970 204.574188,477.818298 205.395813,476.925873 
	C206.237335,477.821289 207.359070,478.580048 207.873596,479.634979 
	C210.615356,485.256073 213.205093,490.951355 215.992096,497.126953 
	C216.216476,497.903351 216.277740,498.177002 216.320557,498.453857 
z"/>
<path fill="#6D3CFF" opacity="1.000000" stroke="none" 
	d="
M200.263550,511.551880 
	C205.471558,511.116180 210.913498,510.971008 216.355392,510.971954 
	C218.626923,510.972321 220.348602,510.648895 220.029221,507.364075 
	C220.636658,508.140289 221.210632,509.342224 221.784607,510.544128 
	C220.508224,511.063995 219.239105,512.008789 217.954208,512.030762 
	C212.137726,512.130127 206.316803,511.968811 200.263550,511.551880 
z"/>
<path fill="#6D3CFF" opacity="1.000000" stroke="none" 
	d="
M219.068954,503.633728 
	C218.382309,502.788666 217.673019,501.584534 217.006653,499.992950 
	C217.715149,500.828552 218.380722,502.051605 219.068954,503.633728 
z"/>
<path fill="#6D3CFF" opacity="1.000000" stroke="none" 
	d="
M220.191010,506.645203 
	C219.709061,506.196594 219.336899,505.411865 219.001709,504.275940 
	C219.459366,504.719513 219.880066,505.514343 220.191010,506.645203 
z"/>
<path fill="#6D3CFF" opacity="1.000000" stroke="none" 
	d="
M216.349258,498.311157 
	C216.277740,498.177002 216.216476,497.903351 216.060760,497.500061 
	C216.251007,497.560852 216.382065,497.827911 216.349258,498.311157 
z"/>
</svg>